<?xml version="1.0" standalone="no"?>
<!DOCTYPE svg PUBLIC "-//W3C//DTD SVG 20010904//EN"
        "http://www.w3.org/TR/2001/REC-SVG-20010904/DTD/svg10.dtd">
<svg version="1.0" xmlns="http://www.w3.org/2000/svg"
     width="391.000000pt" height="390.000000pt" viewBox="0 0 391.000000 390.000000"
     preserveAspectRatio="xMidYMid meet">

    <g transform="translate(0.000000,390.000000) scale(0.100000,-0.100000)"
       fill="#000000" stroke="none">
        <path d="M1865 3891 c-3 -5 -1 -12 5 -16 12 -7 30 2 30 16 0 12 -27 12 -35 0z"/>
        <path d="M1920 3892 c0 -5 15 -17 34 -27 19 -11 33 -23 30 -27 -3 -4 -1 -8 5
-8 5 0 11 4 13 10 3 9 70 -9 84 -23 13 -12 24 -7 18 8 -7 17 31 22 41 5 3 -5
15 -10 26 -10 14 0 19 7 19 25 0 24 -2 26 -37 20 -21 -4 -53 -11 -72 -17 -28
-9 -35 -8 -43 6 -6 10 -17 15 -27 11 -10 -3 -28 3 -41 15 -24 20 -50 27 -50
12z"/>
        <path d="M1770 3875 c13 -16 50 -21 50 -6 0 5 -10 11 -22 15 -36 9 -41 7 -28
-9z"/>
        <path d="M2070 3880 c20 -13 40 -13 40 0 0 6 -12 10 -27 10 -22 0 -25 -2 -13
-10z"/>
        <path d="M1698 3873 c7 -3 16 -2 19 1 4 3 -2 6 -13 5 -11 0 -14 -3 -6 -6z"/>
        <path d="M2215 3859 c-13 -20 5 -22 53 -7 l47 16 -47 1 c-26 1 -50 -4 -53 -10z"/>
        <path d="M1590 3850 c0 -5 6 -10 14 -10 8 0 18 5 21 10 3 6 -3 10 -14 10 -12
0 -21 -4 -21 -10z"/>
        <path d="M1696 3853 c-3 -3 -6 -15 -6 -25 0 -15 -9 -18 -52 -19 l-53 -1 40
-10 c79 -18 95 -20 111 -14 14 5 14 7 0 22 -9 8 -16 22 -16 29 0 16 -14 27
-24 18z"/>
        <path d="M1785 3838 c-33 -18 -36 -23 -20 -26 11 -2 33 -13 48 -24 36 -26 47
-17 13 10 -33 25 -32 30 1 34 30 3 45 28 16 28 -10 -1 -36 -11 -58 -22z"/>
        <path d="M1525 3837 c-3 -9 -7 -24 -10 -32 -6 -18 22 -32 36 -18 6 6 4 20 -5
38 -12 23 -16 26 -21 12z"/>
        <path d="M2375 3840 c3 -5 18 -10 33 -10 21 0 24 2 12 10 -20 13 -53 13 -45 0z"/>
        <path d="M1874 3829 c-9 -15 15 -29 50 -29 l30 0 -22 20 c-24 22 -47 26 -58 9z"/>
        <path d="M2290 3830 c0 -5 4 -10 9 -10 6 0 13 5 16 10 3 6 -1 10 -9 10 -9 0
-16 -4 -16 -10z"/>
        <path d="M1410 3812 c0 -14 48 -33 55 -22 4 6 3 15 0 20 -7 12 -55 13 -55 2z"/>
        <path d="M2345 3810 c3 -5 10 -10 16 -10 5 0 9 5 9 10 0 6 -7 10 -16 10 -8 0
-12 -4 -9 -10z"/>
        <path d="M2020 3795 c0 -8 7 -15 15 -15 8 0 15 7 15 15 0 8 -7 15 -15 15 -8 0
-15 -7 -15 -15z"/>
        <path d="M2230 3800 c-12 -8 -9 -10 13 -11 15 -1 32 -2 39 -3 6 -1 13 5 16 12
5 15 -46 16 -68 2z"/>
        <path d="M2450 3800 c0 -5 7 -10 15 -10 8 0 15 5 15 10 0 6 -7 10 -15 10 -8 0
-15 -4 -15 -10z"/>
        <path d="M2514 3794 c9 -23 -3 -37 -20 -23 -8 6 -14 7 -14 2 0 -6 18 -22 40
-37 46 -30 47 -35 20 -59 -11 -9 -20 -21 -20 -27 0 -15 26 -12 40 5 14 17 94
20 133 6 21 -8 26 -6 31 12 6 25 0 35 -14 21 -12 -12 -130 -5 -130 8 0 5 -10
18 -22 27 -12 10 -18 23 -14 29 9 14 36 16 36 3 0 -19 32 -42 50 -36 11 3 27
1 38 -6 13 -8 31 -9 58 -3 l39 8 -45 4 c-25 2 -49 7 -54 13 -6 5 -25 9 -43 9
-34 0 -41 8 -22 27 7 7 -3 14 -35 22 -58 14 -59 14 -52 -5z"/>
        <path d="M2382 3788 c6 -18 66 -49 73 -38 4 6 0 10 -7 10 -7 0 -19 9 -26 20
-13 21 -46 28 -40 8z"/>
        <path d="M1288 3783 c-32 -8 -20 -29 17 -30 19 -1 35 1 35 4 0 6 -27 33 -32
32 -2 -1 -11 -3 -20 -6z"/>
        <path d="M2337 3784 c-8 -8 1 -24 14 -24 5 0 9 7 9 15 0 15 -12 20 -23 9z"/>
        <path d="M1456 3771 c-12 -5 -16 -10 -9 -14 13 -8 43 2 43 14 0 10 -8 10 -34
0z"/>
        <path d="M1555 3770 c-8 -13 35 -13 55 0 11 7 7 10 -17 10 -17 0 -35 -4 -38
-10z"/>
        <path d="M1916 3765 c-11 -8 -17 -17 -15 -20 9 -8 48 7 53 21 7 18 -14 17 -38
-1z"/>
        <path d="M2100 3771 c0 -11 25 -21 53 -21 22 1 22 1 3 15 -22 17 -56 20 -56 6z"/>
        <path d="M1770 3760 c0 -5 5 -10 10 -10 6 0 10 5 10 10 0 6 -4 10 -10 10 -5 0
-10 -4 -10 -10z"/>
        <path d="M1993 3745 c-9 -19 -8 -25 1 -25 7 0 18 11 24 25 9 19 9 25 -1 25 -6
0 -17 -11 -24 -25z"/>
        <path d="M2278 3758 c9 -9 15 -9 24 0 9 9 7 12 -12 12 -19 0 -21 -3 -12 -12z"/>
        <path d="M1477 3744 c-14 -14 -6 -19 33 -20 22 -1 40 2 40 7 0 5 -9 9 -19 9
-11 0 -26 2 -33 5 -8 3 -17 2 -21 -1z"/>
        <path d="M1646 3734 c-9 -8 -14 -20 -10 -25 6 -10 24 -2 59 25 20 15 19 15 -7
16 -15 0 -34 -7 -42 -16z"/>
        <path d="M2216 3735 c4 -8 15 -15 26 -15 17 0 18 3 8 15 -7 8 -19 15 -26 15
-8 0 -11 -6 -8 -15z"/>
        <path d="M2325 3740 c-8 -14 -7 -15 23 -25 20 -6 23 -4 20 11 -4 22 -33 31
-43 14z"/>
        <path d="M1250 3730 c-8 -5 -27 -10 -42 -10 -16 0 -28 -5 -28 -11 0 -13 -116
-129 -130 -129 -5 0 -10 6 -10 14 0 8 -7 17 -16 20 -8 3 -12 10 -9 16 8 13
-21 13 -47 -1 -16 -9 -18 -13 -7 -19 10 -7 10 -12 1 -23 -11 -13 -6 -14 33 -9
25 2 45 1 45 -4 0 -5 -18 -29 -41 -53 -22 -24 -38 -46 -35 -49 9 -9 94 72 95
91 1 11 12 20 31 23 16 4 32 15 35 25 8 23 105 89 132 89 12 0 23 8 26 20 6
22 -8 26 -33 10z"/>
        <path d="M1340 3730 c0 -5 14 -10 30 -10 17 0 30 5 30 10 0 6 -13 10 -30 10
-16 0 -30 -4 -30 -10z"/>
        <path d="M1735 3720 c3 -5 10 -10 16 -10 5 0 9 5 9 10 0 6 -7 10 -16 10 -8 0
-12 -4 -9 -10z"/>
        <path d="M1873 3714 c-17 -17 -16 -24 1 -24 19 0 27 13 18 27 -5 7 -11 7 -19
-3z"/>
        <path d="M1105 3702 c-17 -9 -40 -27 -52 -39 -33 -33 -1 -38 35 -5 17 15 41
35 54 44 31 23 3 23 -37 0z"/>
        <path d="M2105 3711 c-3 -5 -1 -12 4 -15 12 -8 41 3 41 15 0 12 -37 12 -45 0z"/>
        <path d="M1415 3689 c-4 -11 -4 -23 -2 -26 9 -8 27 7 27 22 0 23 -18 27 -25 4z"/>
        <path d="M1572 3698 c3 -7 13 -15 22 -16 12 -3 17 1 14 10 -3 7 -13 15 -22 16
-12 3 -17 -1 -14 -10z"/>
        <path d="M2195 3700 c-4 -6 5 -10 20 -10 15 0 24 4 20 10 -3 6 -12 10 -20 10
-8 0 -17 -4 -20 -10z"/>
        <path d="M2410 3690 c0 -12 24 -12 60 0 21 7 19 8 -17 9 -24 1 -43 -3 -43 -9z"/>
        <path d="M1280 3676 c0 -8 -7 -16 -15 -20 -17 -6 -21 -26 -5 -26 9 0 60 47 60
55 0 3 -9 5 -20 5 -11 0 -20 -6 -20 -14z"/>
        <path d="M1775 3680 c4 -6 11 -8 16 -5 14 9 11 15 -7 15 -8 0 -12 -5 -9 -10z"/>
        <path d="M2822 3678 c5 -14 68 -42 68 -30 0 8 -53 42 -65 42 -4 0 -5 -5 -3
-12z"/>
        <path d="M1694 3663 c4 -9 1 -20 -6 -25 -10 -6 -9 -8 3 -8 16 0 29 19 29 41 0
5 -7 9 -16 9 -11 0 -14 -5 -10 -17z"/>
        <path d="M1925 3670 c-3 -5 1 -10 9 -10 9 0 16 5 16 10 0 6 -4 10 -9 10 -6 0
-13 -4 -16 -10z"/>
        <path d="M2340 3670 c0 -5 5 -10 10 -10 6 0 10 5 10 10 0 6 -4 10 -10 10 -5 0
-10 -4 -10 -10z"/>
        <path d="M2005 3660 c-3 -5 -1 -10 4 -10 6 0 11 5 11 10 0 6 -2 10 -4 10 -3 0
-8 -4 -11 -10z"/>
        <path d="M2270 3660 c0 -5 7 -10 15 -10 8 0 15 5 15 10 0 6 -7 10 -15 10 -8 0
-15 -4 -15 -10z"/>
        <path d="M2735 3661 c-3 -5 2 -11 10 -15 8 -3 17 -1 20 3 3 5 -2 11 -10 15 -8
3 -17 1 -20 -3z"/>
        <path d="M1348 3653 c-50 -5 -49 -18 2 -19 28 -1 40 3 40 12 0 8 -1 13 -2 12
-2 -1 -20 -3 -40 -5z"/>
        <path d="M1790 3650 c0 -5 7 -10 15 -10 8 0 15 5 15 10 0 6 -7 10 -15 10 -8 0
-15 -4 -15 -10z"/>
        <path d="M2148 3653 c7 -3 16 -2 19 1 4 3 -2 6 -13 5 -11 0 -14 -3 -6 -6z"/>
        <path d="M2200 3642 c0 -5 7 -13 16 -16 10 -4 14 -1 12 6 -5 15 -28 23 -28 10z"/>
        <path d="M2365 3640 c3 -5 10 -10 16 -10 5 0 9 5 9 10 0 6 -7 10 -16 10 -8 0
-12 -4 -9 -10z"/>
        <path d="M2805 3640 c-3 -5 -1 -10 4 -10 6 0 11 5 11 10 0 6 -2 10 -4 10 -3 0
-8 -4 -11 -10z"/>
        <path d="M1516 3622 c-7 -20 -12 -22 -37 -17 -18 4 -29 3 -29 -4 0 -6 6 -11
14 -11 8 0 21 -3 29 -6 17 -6 41 29 34 49 -2 7 -7 2 -11 -11z"/>
        <path d="M1845 3630 c-3 -5 1 -10 9 -10 9 0 16 5 16 10 0 6 -4 10 -9 10 -6 0
-13 -4 -16 -10z"/>
        <path d="M1930 3630 c0 -5 7 -10 16 -10 8 0 12 5 9 10 -3 6 -10 10 -16 10 -5
0 -9 -4 -9 -10z"/>
        <path d="M2630 3625 c-7 -8 -21 -15 -31 -15 -11 0 -19 -5 -19 -11 0 -7 11 -8
31 -4 24 6 34 2 54 -19 24 -26 45 -34 45 -16 0 5 -11 17 -25 26 -14 9 -24 23
-23 32 4 21 -16 26 -32 7z"/>
        <path d="M2920 3630 c0 -5 5 -10 11 -10 5 0 7 5 4 10 -3 6 -8 10 -11 10 -2 0
-4 -4 -4 -10z"/>
        <path d="M2860 3620 c0 -5 7 -10 16 -10 8 0 12 5 9 10 -3 6 -10 10 -16 10 -5
0 -9 -4 -9 -10z"/>
        <path d="M1161 3610 c-12 -7 -12 -11 2 -25 16 -15 18 -15 23 0 9 21 -7 37 -25
25z"/>
        <path d="M1370 3610 c0 -5 7 -10 15 -10 8 0 15 5 15 10 0 6 -7 10 -15 10 -8 0
-15 -4 -15 -10z"/>
        <path d="M2468 3613 c7 -3 16 -2 19 1 4 3 -2 6 -13 5 -11 0 -14 -3 -6 -6z"/>
        <path d="M2512 3608 c3 -7 13 -15 24 -17 16 -3 17 -1 5 13 -16 19 -34 21 -29
4z"/>
        <path d="M2365 3600 c3 -5 10 -10 16 -10 5 0 9 5 9 10 0 6 -7 10 -16 10 -8 0
-12 -4 -9 -10z"/>
        <path d="M2435 3600 c3 -5 8 -10 11 -10 2 0 4 5 4 10 0 6 -5 10 -11 10 -5 0
-7 -4 -4 -10z"/>
        <path d="M2755 3598 c-19 -11 -19 -11 0 -19 33 -13 45 -10 45 11 0 22 -15 25
-45 8z"/>
        <path d="M1220 3590 c0 -5 9 -10 20 -10 11 0 20 5 20 10 0 6 -9 10 -20 10 -11
0 -20 -4 -20 -10z"/>
        <path d="M1585 3590 c-3 -5 1 -10 9 -10 8 0 18 5 21 10 3 6 -1 10 -9 10 -8 0
-18 -4 -21 -10z"/>
        <path d="M900 3580 c0 -5 4 -10 9 -10 6 0 13 5 16 10 3 6 -1 10 -9 10 -9 0
-16 -4 -16 -10z"/>
        <path d="M2300 3580 c0 -13 28 -25 38 -16 3 4 0 11 -8 16 -20 13 -30 12 -30 0z"/>
        <path d="M2860 3581 c0 -5 6 -13 13 -19 10 -9 17 -6 30 8 16 19 16 20 -13 20
-17 0 -30 -4 -30 -9z"/>
        <path d="M2960 3571 c0 -12 6 -21 16 -21 9 0 14 7 12 17 -5 25 -28 28 -28 4z"/>
        <path d="M1320 3570 c-12 -8 -11 -10 7 -10 12 0 25 5 28 10 8 13 -15 13 -35 0z"/>
        <path d="M1698 3573 c7 -3 16 -2 19 1 4 3 -2 6 -13 5 -11 0 -14 -3 -6 -6z"/>
        <path d="M1808 3573 c7 -3 16 -2 19 1 4 3 -2 6 -13 5 -11 0 -14 -3 -6 -6z"/>
        <path d="M2140 3570 c0 -5 5 -10 10 -10 6 0 10 5 10 10 0 6 -4 10 -10 10 -5 0
-10 -4 -10 -10z"/>
        <path d="M2205 3570 c3 -5 8 -10 11 -10 2 0 4 5 4 10 0 6 -5 10 -11 10 -5 0
-7 -4 -4 -10z"/>
        <path d="M2520 3570 c0 -5 5 -10 10 -10 6 0 10 5 10 10 0 6 -4 10 -10 10 -5 0
-10 -4 -10 -10z"/>
        <path d="M1155 3550 c-3 -5 -2 -10 4 -10 5 0 13 5 16 10 3 6 2 10 -4 10 -5 0
-13 -4 -16 -10z"/>
        <path d="M863 3537 c-27 -6 -43 -15 -43 -25 0 -10 4 -12 13 -5 6 6 36 13 66
16 63 7 95 28 41 26 -19 -1 -54 -6 -77 -12z"/>
        <path d="M1980 3540 c0 -5 5 -10 10 -10 6 0 10 5 10 10 0 6 -4 10 -10 10 -5 0
-10 -4 -10 -10z"/>
        <path d="M1065 3530 c-3 -5 -2 -10 4 -10 5 0 13 5 16 10 3 6 2 10 -4 10 -5 0
-13 -4 -16 -10z"/>
        <path d="M2952 3528 c3 -7 13 -15 24 -17 16 -3 17 -1 5 13 -16 19 -34 21 -29
4z"/>
        <path d="M3047 3524 c-28 -15 -32 -34 -9 -42 7 -2 12 2 12 8 0 18 24 37 39 32
8 -3 11 0 7 7 -9 14 -15 14 -49 -5z"/>
        <path d="M1295 3519 c-10 -15 3 -25 16 -12 7 7 7 13 1 17 -6 3 -14 1 -17 -5z"/>
        <path d="M1720 3520 c0 -5 5 -10 10 -10 6 0 10 5 10 10 0 6 -4 10 -10 10 -5 0
-10 -4 -10 -10z"/>
        <path d="M1510 3510 c0 -5 7 -10 15 -10 8 0 15 5 15 10 0 6 -7 10 -15 10 -8 0
-15 -4 -15 -10z"/>
        <path d="M2598 3513 c7 -3 16 -2 19 1 4 3 -2 6 -13 5 -11 0 -14 -3 -6 -6z"/>
        <path d="M2805 3510 c3 -5 8 -10 11 -10 2 0 4 5 4 10 0 6 -5 10 -11 10 -5 0
-7 -4 -4 -10z"/>
        <path d="M2853 3505 c-3 -9 -2 -19 1 -23 8 -8 38 10 44 26 6 18 -38 14 -45 -3z"/>
        <path d="M1080 3496 c0 -8 -7 -17 -16 -20 -9 -4 -14 -9 -11 -12 6 -7 56 27 57
39 0 4 -7 7 -15 7 -8 0 -15 -6 -15 -14z"/>
        <path d="M2240 3500 c0 -5 7 -10 15 -10 8 0 15 5 15 10 0 6 -7 10 -15 10 -8 0
-15 -4 -15 -10z"/>
        <path d="M2490 3500 c0 -5 7 -10 15 -10 8 0 15 5 15 10 0 6 -7 10 -15 10 -8 0
-15 -4 -15 -10z"/>
        <path d="M2723 3503 c-15 -5 -17 -23 -4 -23 5 0 11 7 15 15 3 8 4 15 3 14 -1
0 -8 -3 -14 -6z"/>
        <path d="M770 3490 c0 -5 4 -10 9 -10 6 0 13 5 16 10 3 6 -1 10 -9 10 -9 0
-16 -4 -16 -10z"/>
        <path d="M853 3493 c-18 -7 -16 -23 2 -23 8 0 15 7 15 15 0 8 -1 15 -2 14 -2
0 -9 -3 -15 -6z"/>
        <path d="M2350 3490 c0 -5 5 -10 10 -10 6 0 10 5 10 10 0 6 -4 10 -10 10 -5 0
-10 -4 -10 -10z"/>
        <path d="M1130 3480 c-13 -8 -12 -10 3 -10 9 0 17 5 17 10 0 12 -1 12 -20 0z"/>
        <path d="M1782 3478 c6 -18 28 -21 28 -4 0 9 -7 16 -16 16 -9 0 -14 -5 -12
-12z"/>
        <path d="M2780 3481 c0 -10 30 -24 37 -17 3 3 2 9 -2 15 -8 13 -35 15 -35 2z"/>
        <path d="M2950 3471 c12 -23 29 -35 37 -27 7 7 -26 46 -39 46 -5 0 -4 -9 2
-19z"/>
        <path d="M3109 3476 c16 -19 44 -21 39 -3 -3 6 -15 14 -28 15 -21 3 -22 2 -11
-12z"/>
        <path d="M1415 3470 c-3 -5 1 -10 9 -10 9 0 16 5 16 10 0 6 -4 10 -9 10 -6 0
-13 -4 -16 -10z"/>
        <path d="M2655 3470 c3 -5 10 -10 16 -10 5 0 9 5 9 10 0 6 -7 10 -16 10 -8 0
-12 -4 -9 -10z"/>
        <path d="M717 3456 c-23 -17 -22 -21 8 -24 26 -2 30 4 17 25 -5 8 -11 8 -25
-1z"/>
        <path d="M873 3463 c-20 -7 -15 -33 5 -33 19 0 42 18 42 32 0 9 -27 9 -47 1z"/>
        <path d="M772 3435 c-6 -14 -16 -25 -22 -25 -5 0 -10 -4 -10 -10 0 -14 28 -12
33 3 2 6 19 12 37 12 42 0 48 16 13 33 -36 16 -38 16 -51 -13z"/>
        <path d="M3022 3443 c2 -12 14 -19 33 -21 l30 -2 -24 20 c-29 25 -44 26 -39 3z"/>
        <path d="M3080 3450 c0 -5 7 -10 15 -10 8 0 15 5 15 10 0 6 -7 10 -15 10 -8 0
-15 -4 -15 -10z"/>
        <path d="M1260 3431 c0 -23 25 -46 34 -32 7 11 -14 51 -26 51 -5 0 -8 -8 -8
-19z"/>
        <path d="M2525 3440 c3 -5 10 -10 16 -10 5 0 9 5 9 10 0 6 -7 10 -16 10 -8 0
-12 -4 -9 -10z"/>
        <path d="M2905 3440 c3 -5 10 -10 16 -10 5 0 9 5 9 10 0 6 -7 10 -16 10 -8 0
-12 -4 -9 -10z"/>
        <path d="M1050 3429 c0 -5 5 -7 10 -4 6 3 10 8 10 11 0 2 -4 4 -10 4 -5 0 -10
-5 -10 -11z"/>
        <path d="M3183 3432 c-13 -2 -23 -10 -23 -18 0 -19 -19 -18 -26 1 -9 21 -24
19 -24 -4 0 -10 11 -26 25 -35 14 -9 25 -24 25 -32 0 -11 6 -15 19 -11 11 2
34 -4 51 -15 18 -10 40 -17 49 -15 10 2 -1 11 -30 26 -26 12 -52 21 -60 19 -8
-2 -15 7 -17 19 -2 17 3 26 22 33 41 15 33 40 -11 32z"/>
        <path d="M966 3421 c-4 -5 -2 -12 3 -15 5 -4 12 -2 15 3 4 5 2 12 -3 15 -5 4
-12 2 -15 -3z"/>
        <path d="M1166 3423 c-11 -11 -6 -23 9 -23 8 0 15 4 15 9 0 13 -16 22 -24 14z"/>
        <path d="M1514 3405 c1 -23 16 -37 16 -16 0 5 3 16 6 25 4 10 1 16 -9 16 -10
0 -14 -9 -13 -25z"/>
        <path d="M667 3413 c-15 -14 -7 -43 12 -43 27 0 35 17 17 35 -16 17 -20 18
-29 8z"/>
        <path d="M2575 3410 c3 -5 8 -10 11 -10 2 0 4 5 4 10 0 6 -5 10 -11 10 -5 0
-7 -4 -4 -10z"/>
        <path d="M2827 3413 c-10 -17 30 -47 50 -38 17 8 17 8 -2 13 -11 2 -25 11 -31
20 -7 9 -13 11 -17 5z"/>
        <path d="M1007 3403 c-12 -12 -7 -22 8 -17 8 4 15 10 15 15 0 11 -14 12 -23 2z"/>
        <path d="M1210 3400 c0 -5 6 -10 14 -10 8 0 18 5 21 10 3 6 -3 10 -14 10 -12
0 -21 -4 -21 -10z"/>
        <path d="M3249 3398 c7 -9 10 -26 6 -38 -4 -14 -2 -20 9 -20 28 0 28 22 0 49
-15 14 -22 18 -15 9z"/>
        <path d="M804 3385 c-18 -15 -18 -15 5 -13 14 2 26 9 29 16 5 17 -10 15 -34
-3z"/>
        <path d="M2985 3380 c3 -5 10 -10 16 -10 5 0 9 5 9 10 0 6 -7 10 -16 10 -8 0
-12 -4 -9 -10z"/>
        <path d="M895 3359 c-11 -17 1 -21 15 -4 8 9 8 15 2 15 -6 0 -14 -5 -17 -11z"/>
        <path d="M1550 3360 c0 -5 7 -10 15 -10 8 0 15 5 15 10 0 6 -7 10 -15 10 -8 0
-15 -4 -15 -10z"/>
        <path d="M2325 3360 c3 -5 11 -10 16 -10 6 0 7 5 4 10 -3 6 -11 10 -16 10 -6
0 -7 -4 -4 -10z"/>
        <path d="M3030 3362 c0 -11 45 -32 67 -32 14 0 14 2 -2 20 -18 20 -65 28 -65
12z"/>
        <path d="M601 3349 c-19 -7 -22 -12 -12 -22 13 -13 42 0 49 21 4 14 -4 14 -37
1z"/>
        <path d="M2716 3352 c-3 -6 -1 -14 5 -17 15 -10 25 3 12 16 -7 7 -13 7 -17 1z"/>
        <path d="M690 3320 c-30 -25 -32 -30 -14 -30 28 0 57 23 53 43 -3 13 -10 11
-39 -13z"/>
        <path d="M975 3329 c-12 -19 5 -23 22 -6 16 16 16 17 1 17 -9 0 -20 -5 -23
-11z"/>
        <path d="M2800 3310 c0 -5 7 -10 16 -10 8 0 12 5 9 10 -3 6 -10 10 -16 10 -5
0 -9 -4 -9 -10z"/>
        <path d="M3334 3313 c4 -7 2 -13 -4 -13 -6 0 -8 -5 -4 -11 5 -8 8 -8 14 0 10
17 32 -12 25 -31 -7 -17 32 -98 46 -98 6 0 6 7 0 18 -5 9 -15 36 -22 59 -6 23
-23 53 -37 65 -14 13 -22 17 -18 11z"/>
        <path d="M576 3281 c-16 -17 -40 -31 -54 -33 -14 -2 -27 -9 -30 -15 -6 -20 45
-16 65 6 10 10 30 26 46 36 15 9 27 21 27 26 0 18 -27 8 -54 -20z"/>
        <path d="M735 3299 c-11 -17 1 -21 15 -4 8 9 8 15 2 15 -6 0 -14 -5 -17 -11z"/>
        <path d="M1065 3300 c-3 -5 1 -10 9 -10 9 0 16 5 16 10 0 6 -4 10 -9 10 -6 0
-13 -4 -16 -10z"/>
        <path d="M3210 3301 c0 -5 7 -11 14 -14 10 -4 13 -1 9 9 -6 15 -23 19 -23 5z"/>
        <path d="M2460 3290 c0 -5 5 -10 10 -10 6 0 10 5 10 10 0 6 -4 10 -10 10 -5 0
-10 -4 -10 -10z"/>
        <path d="M3115 3290 c3 -5 8 -10 11 -10 2 0 4 5 4 10 0 6 -5 10 -11 10 -5 0
-7 -4 -4 -10z"/>
        <path d="M3160 3290 c0 -5 5 -10 10 -10 6 0 10 5 10 10 0 6 -4 10 -10 10 -5 0
-10 -4 -10 -10z"/>
        <path d="M3033 3282 c-14 -2 -20 -8 -16 -18 7 -19 29 -18 37 2 8 20 7 21 -21
16z"/>
        <path d="M800 3254 c0 -8 5 -12 10 -9 6 3 10 10 10 16 0 5 -4 9 -10 9 -5 0
-10 -7 -10 -16z"/>
        <path d="M3216 3263 c-11 -11 -6 -23 9 -23 8 0 15 4 15 9 0 13 -16 22 -24 14z"/>
        <path d="M3270 3262 c0 -5 9 -17 20 -27 11 -10 20 -26 20 -37 0 -10 5 -18 10
-18 13 0 13 19 -1 59 -7 20 -18 31 -30 31 -10 0 -19 -4 -19 -8z"/>
        <path d="M906 3251 c-4 -5 -2 -12 3 -15 5 -4 12 -2 15 3 4 5 2 12 -3 15 -5 4
-12 2 -15 -3z"/>
        <path d="M2727 3253 c-4 -3 -7 -15 -7 -27 0 -20 0 -20 15 0 8 10 15 22 15 27
0 9 -14 9 -23 0z"/>
        <path d="M613 3232 c-37 -4 -55 -32 -20 -32 23 0 67 25 57 32 -3 2 -19 2 -37
0z"/>
        <path d="M990 3230 c0 -5 5 -10 10 -10 6 0 10 5 10 10 0 6 -4 10 -10 10 -5 0
-10 -4 -10 -10z"/>
        <path d="M3115 3230 c3 -5 8 -10 11 -10 2 0 4 5 4 10 0 6 -5 10 -11 10 -5 0
-7 -4 -4 -10z"/>
        <path d="M690 3220 c0 -5 5 -10 10 -10 6 0 10 5 10 10 0 6 -4 10 -10 10 -5 0
-10 -4 -10 -10z"/>
        <path d="M800 3220 c0 -5 7 -10 15 -10 8 0 15 5 15 10 0 6 -7 10 -15 10 -8 0
-15 -4 -15 -10z"/>
        <path d="M2970 3220 c0 -5 7 -10 16 -10 8 0 12 5 9 10 -3 6 -10 10 -16 10 -5
0 -9 -4 -9 -10z"/>
        <path d="M730 3205 c0 -8 5 -15 10 -15 6 0 10 7 10 15 0 8 -4 15 -10 15 -5 0
-10 -7 -10 -15z"/>
        <path d="M950 3209 c0 -5 5 -7 10 -4 6 3 10 8 10 11 0 2 -4 4 -10 4 -5 0 -10
-5 -10 -11z"/>
        <path d="M2940 3201 c0 -6 5 -13 10 -16 6 -3 10 1 10 9 0 9 -4 16 -10 16 -5 0
-10 -4 -10 -9z"/>
        <path d="M3199 3184 c-11 -14 -10 -16 9 -12 13 1 23 7 23 13 1 17 -17 16 -32
-1z"/>
        <path d="M3452 3172 c6 -15 21 -33 34 -39 21 -10 20 -7 -8 28 -17 22 -32 39
-34 39 -1 0 2 -13 8 -28z"/>
        <path d="M3265 3180 c3 -5 13 -10 21 -10 8 0 14 5 14 10 0 6 -9 10 -21 10 -11
0 -17 -4 -14 -10z"/>
        <path d="M434 3165 c-7 -17 4 -37 17 -30 12 8 12 45 -1 45 -6 0 -13 -7 -16
-15z"/>
        <path d="M490 3155 c0 -9 6 -12 15 -9 8 4 12 10 9 15 -8 14 -24 10 -24 -6z"/>
        <path d="M585 3149 c-4 -6 -5 -13 -2 -16 7 -7 27 6 27 18 0 12 -17 12 -25 -2z"/>
        <path d="M527 3143 c-4 -3 -7 -15 -7 -25 0 -26 24 -17 28 10 3 21 -8 29 -21
15z"/>
        <path d="M3050 3140 c0 -5 5 -10 10 -10 6 0 10 5 10 10 0 6 -4 10 -10 10 -5 0
-10 -4 -10 -10z"/>
        <path d="M620 3125 c0 -8 5 -15 10 -15 6 0 10 7 10 15 0 8 -4 15 -10 15 -5 0
-10 -7 -10 -15z"/>
        <path d="M3353 3128 c2 -7 10 -13 17 -13 7 0 15 6 18 13 2 7 -5 12 -18 12 -13
0 -20 -5 -17 -12z"/>
        <path d="M730 3120 c0 -5 4 -10 9 -10 6 0 13 5 16 10 3 6 -1 10 -9 10 -9 0
-16 -4 -16 -10z"/>
        <path d="M3270 3121 c0 -5 7 -12 16 -15 24 -9 28 -7 14 9 -14 17 -30 20 -30 6z"/>
        <path d="M3445 3120 c-3 -5 1 -10 9 -10 9 0 16 5 16 10 0 6 -4 10 -9 10 -6 0
-13 -4 -16 -10z"/>
        <path d="M3200 3110 c0 -5 5 -10 10 -10 6 0 10 5 10 10 0 6 -4 10 -10 10 -5 0
-10 -4 -10 -10z"/>
        <path d="M375 3102 c-12 -13 -4 -23 10 -12 12 10 15 10 15 -4 0 -22 17 -20 30
3 9 17 7 20 -20 19 -16 -1 -32 -3 -35 -6z"/>
        <path d="M640 3095 c-10 -13 -9 -15 9 -15 12 0 21 6 21 15 0 8 -4 15 -9 15 -5
0 -14 -7 -21 -15z"/>
        <path d="M2956 3085 c4 -8 12 -15 20 -15 8 0 11 6 8 15 -4 8 -12 15 -20 15 -8
0 -11 -6 -8 -15z"/>
        <path d="M3172 3091 c4 -13 18 -16 19 -4 0 4 -5 9 -11 12 -7 2 -11 -2 -8 -8z"/>
        <path d="M920 3079 c0 -5 5 -7 10 -4 6 3 10 8 10 11 0 2 -4 4 -10 4 -5 0 -10
-5 -10 -11z"/>
        <path d="M765 3070 c-3 -5 3 -18 15 -30 24 -24 30 -25 30 -5 0 8 -4 15 -10 15
-5 0 -10 7 -10 15 0 17 -16 20 -25 5z"/>
        <path d="M3430 3070 c0 -9 31 -30 44 -30 13 0 5 28 -10 34 -23 9 -34 7 -34 -4z"/>
        <path d="M3516 3073 c-9 -9 -8 -47 2 -58 5 -6 15 -30 22 -55 18 -58 29 -72 52
-64 10 3 30 -2 43 -10 29 -19 32 -10 9 22 -12 17 -24 22 -47 20 -29 -3 -32 0
-35 27 -2 17 -8 34 -13 40 -5 5 -9 24 -9 41 0 32 -11 50 -24 37z"/>
        <path d="M507 3053 c-4 -3 -2 -12 5 -20 8 -11 7 -17 -8 -27 -10 -8 -16 -18
-12 -22 10 -9 47 36 48 59 0 17 -20 23 -33 10z"/>
        <path d="M1932 3013 c2 -35 7 -48 18 -48 24 0 21 89 -3 93 -16 3 -18 -3 -15
-45z"/>
        <path d="M3402 3049 c2 -7 10 -15 17 -17 8 -3 12 1 9 9 -2 7 -10 15 -17 17 -8
3 -12 -1 -9 -9z"/>
        <path d="M383 3035 c-3 -9 -3 -18 0 -22 10 -10 37 6 37 22 0 20 -29 20 -37 0z"/>
        <path d="M648 3043 c7 -3 16 -2 19 1 4 3 -2 6 -13 5 -11 0 -14 -3 -6 -6z"/>
        <path d="M3280 3040 c0 -5 5 -10 10 -10 6 0 10 5 10 10 0 6 -4 10 -10 10 -5 0
-10 -4 -10 -10z"/>
        <path d="M447 3024 c-8 -8 1 -24 14 -24 5 0 9 7 9 15 0 15 -12 20 -23 9z"/>
        <path d="M610 3020 c-8 -5 -11 -12 -7 -16 4 -4 13 -2 19 4 15 15 7 24 -12 12z"/>
        <path d="M3340 3015 c0 -8 -8 -15 -17 -15 -13 0 -14 -3 -5 -12 9 -9 16 -7 32
10 24 25 25 32 5 32 -8 0 -15 -7 -15 -15z"/>
        <path d="M320 3010 c0 -5 5 -10 10 -10 6 0 10 5 10 10 0 6 -4 10 -10 10 -5 0
-10 -4 -10 -10z"/>
        <path d="M3476 3002 c-3 -6 -1 -14 5 -17 15 -10 25 3 12 16 -7 7 -13 7 -17 1z"/>
        <path d="M2111 2974 c-25 -32 -26 -43 -4 -51 20 -8 65 41 57 62 -9 23 -30 18
-53 -11z"/>
        <path d="M1743 2973 c-4 -10 2 -23 16 -35 45 -35 78 -13 40 28 -26 28 -47 31
-56 7z"/>
        <path d="M280 2944 c-12 -19 -21 -37 -19 -39 9 -8 72 53 65 63 -12 20 -23 14
-46 -24z"/>
        <path d="M380 2959 c-7 -11 -9 -24 -5 -27 7 -7 35 25 35 40 0 16 -19 8 -30
-13z"/>
        <path d="M3400 2971 c0 -6 5 -13 10 -16 6 -3 10 1 10 9 0 9 -4 16 -10 16 -5 0
-10 -4 -10 -9z"/>
        <path d="M3185 2960 c-3 -5 -1 -10 4 -10 6 0 11 5 11 10 0 6 -2 10 -4 10 -3 0
-8 -4 -11 -10z"/>
        <path d="M420 2945 c-7 -9 -10 -18 -7 -21 3 -3 10 4 17 15 13 25 8 27 -10 6z"/>
        <path d="M338 2944 c-5 -4 -8 -22 -8 -41 0 -26 4 -33 20 -33 13 0 20 7 20 20
0 11 -4 20 -9 20 -5 0 -11 9 -13 21 -2 11 -6 17 -10 13z"/>
        <path d="M460 2939 c0 -5 5 -7 10 -4 6 3 10 8 10 11 0 2 -4 4 -10 4 -5 0 -10
-5 -10 -11z"/>
        <path d="M3460 2933 c0 -23 17 -49 26 -41 9 10 -4 58 -16 58 -6 0 -10 -8 -10
-17z"/>
        <path d="M475 2901 c-6 -11 9 -23 19 -14 9 9 7 23 -3 23 -6 0 -12 -4 -16 -9z"/>
        <path d="M640 2900 c0 -5 5 -10 10 -10 6 0 10 5 10 10 0 6 -4 10 -10 10 -5 0
-10 -4 -10 -10z"/>
        <path d="M3395 2890 c3 -5 10 -10 16 -10 5 0 9 5 9 10 0 6 -7 10 -16 10 -8 0
-12 -4 -9 -10z"/>
        <path d="M510 2880 c0 -5 5 -10 10 -10 6 0 10 5 10 10 0 6 -4 10 -10 10 -5 0
-10 -4 -10 -10z"/>
        <path d="M1831 2858 c-65 -40 -112 -114 -113 -177 0 -23 -5 -41 -10 -41 -6 0
-42 11 -80 25 -83 30 -88 30 -88 5 0 -14 -5 -18 -17 -13 -15 6 -15 -2 -9 -78
4 -46 9 -100 12 -119 5 -30 2 -36 -18 -45 -79 -34 -67 -192 17 -232 31 -15 35
-21 36 -57 3 -89 8 -98 74 -115 l60 -16 8 -95 c14 -176 57 -309 106 -330 19
-8 35 -8 54 -1 28 11 33 21 58 101 15 48 50 76 104 82 l30 3 5 -81 c3 -47 11
-88 19 -98 31 -37 101 -6 135 62 41 82 86 277 86 376 0 26 5 36 20 41 18 6 20
15 20 84 l0 78 38 24 c20 13 45 41 56 62 16 34 17 44 7 79 -14 45 -54 88 -82
88 -17 0 -19 10 -19 111 0 106 -1 111 -20 106 -15 -4 -20 0 -20 14 0 18 -2 19
-37 3 -69 -30 -71 -29 -82 13 -15 55 -49 102 -99 138 -38 26 -54 30 -120 33
-72 3 -80 1 -131 -30z m230 -42 c41 -27 76 -84 81 -131 3 -27 -1 -30 -105 -73
l-108 -45 -82 25 -82 26 0 55 c0 47 5 62 31 94 16 21 50 48 75 61 57 30 133
25 190 -12z m239 -271 c0 -73 -3 -89 -25 -121 -35 -52 -35 -130 0 -173 23 -26
26 -38 23 -93 l-3 -62 -148 -59 c-82 -32 -150 -57 -152 -55 -4 4 -46 531 -42
533 4 4 332 113 340 114 4 1 7 -37 7 -84z m-559 10 c80 -20 150 -40 156 -43 6
-4 18 -102 27 -222 9 -118 19 -238 22 -267 l6 -52 -167 44 c-92 24 -168 45
-170 47 -2 2 -6 28 -10 60 -6 51 -5 57 14 67 71 38 65 163 -9 201 -36 18 -37
21 -43 87 -11 111 -10 125 11 119 9 -3 83 -21 163 -41z m659 -201 c0 -29 -49
-84 -74 -84 -18 0 -36 38 -36 76 0 15 13 38 31 57 l32 31 23 -28 c13 -15 24
-38 24 -52z m-827 1 c37 -15 47 -31 47 -75 0 -19 -9 -36 -26 -49 -34 -27 -40
-26 -69 4 -18 17 -25 35 -25 64 0 74 11 82 73 56z m671 -432 c-21 -151 -82
-306 -121 -311 -22 -3 -23 -1 -23 92 l0 96 -37 0 c-96 0 -177 -51 -189 -119
-15 -84 -45 -94 -75 -26 -35 79 -67 275 -45 275 6 0 61 -14 121 -30 61 -16
119 -30 130 -30 11 0 65 20 120 45 55 24 105 44 112 45 8 0 10 -12 7 -37z"/>
        <path d="M266 2864 c-9 -24 -7 -28 9 -14 17 14 20 30 6 30 -5 0 -12 -7 -15
-16z"/>
        <path d="M397 2850 c-3 -13 0 -20 9 -20 8 0 14 9 14 20 0 11 -4 20 -9 20 -5 0
-11 -9 -14 -20z"/>
        <path d="M540 2850 c0 -11 5 -20 10 -20 6 0 10 9 10 20 0 11 -4 20 -10 20 -5
0 -10 -9 -10 -20z"/>
        <path d="M3432 2859 c2 -7 10 -15 17 -17 8 -3 12 1 9 9 -2 7 -10 15 -17 17 -8
3 -12 -1 -9 -9z"/>
        <path d="M302 2803 c-1 -54 0 -57 14 -38 8 11 13 29 10 40 -3 11 -6 28 -6 38
0 9 -4 17 -8 17 -5 0 -9 -26 -10 -57z"/>
        <path d="M3130 2850 c0 -5 5 -10 10 -10 6 0 10 5 10 10 0 6 -4 10 -10 10 -5 0
-10 -4 -10 -10z"/>
        <path d="M3330 2850 c0 -5 5 -10 10 -10 6 0 10 5 10 10 0 6 -4 10 -10 10 -5 0
-10 -4 -10 -10z"/>
        <path d="M3620 2835 c0 -14 5 -25 10 -25 6 0 10 11 10 25 0 14 -4 25 -10 25
-5 0 -10 -11 -10 -25z"/>
        <path d="M3662 2848 c2 -6 10 -14 16 -16 7 -2 10 2 6 12 -7 18 -28 22 -22 4z"/>
        <path d="M3560 2843 c0 -24 23 -83 32 -83 6 0 7 7 3 18 -7 15 -11 34 -14 65
-1 4 -5 7 -11 7 -5 0 -10 -3 -10 -7z"/>
        <path d="M3205 2830 c3 -5 11 -10 16 -10 6 0 7 5 4 10 -3 6 -11 10 -16 10 -6
0 -7 -4 -4 -10z"/>
        <path d="M3525 2820 c3 -5 11 -10 16 -10 6 0 7 5 4 10 -3 6 -11 10 -16 10 -6
0 -7 -4 -4 -10z"/>
        <path d="M201 2803 c-17 -33 -14 -44 13 -37 13 3 27 1 30 -5 10 -16 26 -13 26
4 0 8 -5 15 -11 15 -6 0 -19 10 -29 22 l-17 22 -12 -21z"/>
        <path d="M3643 2795 c-16 -18 -17 -47 -1 -63 9 -9 5 -17 -16 -37 -15 -14 -32
-23 -37 -20 -13 9 -11 -9 3 -23 21 -21 68 34 68 79 0 21 5 41 10 44 14 9 12
35 -2 35 -7 -1 -19 -7 -25 -15z"/>
        <path d="M372 2783 c5 -25 28 -28 28 -4 0 12 -6 21 -16 21 -9 0 -14 -7 -12
-17z"/>
        <path d="M3455 2790 c-3 -6 1 -13 10 -16 19 -8 30 0 20 15 -8 14 -22 14 -30 1z"/>
        <path d="M3540 2771 c0 -5 5 -13 10 -16 6 -3 10 -2 10 4 0 5 -4 13 -10 16 -5
3 -10 2 -10 -4z"/>
        <path d="M3690 2755 c0 -14 7 -28 15 -32 22 -8 28 2 21 32 -8 33 -36 33 -36 0z"/>
        <path d="M465 2760 c-3 -5 -2 -10 4 -10 5 0 13 5 16 10 3 6 2 10 -4 10 -5 0
-13 -4 -16 -10z"/>
        <path d="M3390 2740 c0 -5 5 -10 11 -10 5 0 7 5 4 10 -3 6 -8 10 -11 10 -2 0
-4 -4 -4 -10z"/>
        <path d="M566 2731 c-4 -7 -5 -15 -2 -18 9 -9 19 4 14 18 -4 11 -6 11 -12 0z"/>
        <path d="M270 2723 c1 -11 26 -43 34 -43 16 0 0 45 -16 48 -10 2 -18 0 -18 -5z"/>
        <path d="M173 2700 c-3 -11 -12 -20 -19 -20 -8 0 -14 -7 -14 -15 0 -8 2 -15 4
-15 8 0 66 55 66 62 0 17 -32 7 -37 -12z"/>
        <path d="M3320 2711 c0 -6 5 -13 10 -16 6 -3 10 1 10 9 0 9 -4 16 -10 16 -5 0
-10 -4 -10 -9z"/>
        <path d="M3530 2705 c7 -9 15 -13 17 -11 7 7 -7 26 -19 26 -6 0 -6 -6 2 -15z"/>
        <path d="M370 2690 c0 -5 5 -10 10 -10 6 0 10 5 10 10 0 6 -4 10 -10 10 -5 0
-10 -4 -10 -10z"/>
        <path d="M3428 2693 c7 -3 16 -2 19 1 4 3 -2 6 -13 5 -11 0 -14 -3 -6 -6z"/>
        <path d="M3702 2689 c2 -7 10 -15 17 -17 8 -3 12 1 9 9 -2 7 -10 15 -17 17 -8
3 -12 -1 -9 -9z"/>
        <path d="M3746 2664 c1 -21 3 -42 3 -46 1 -5 6 -8 11 -8 15 0 12 53 -4 75 -12
16 -13 14 -10 -21z"/>
        <path d="M205 2680 c-3 -5 -1 -10 4 -10 6 0 11 5 11 10 0 6 -2 10 -4 10 -3 0
-8 -4 -11 -10z"/>
        <path d="M267 2683 c-4 -3 -7 -17 -7 -30 0 -13 -5 -32 -12 -43 -14 -22 -6 -35
17 -27 11 5 15 21 15 57 0 51 -1 55 -13 43z"/>
        <path d="M3320 2636 c0 -9 5 -16 10 -16 6 0 10 4 10 9 0 6 -4 13 -10 16 -5 3
-10 -1 -10 -9z"/>
        <path d="M3505 2640 c3 -5 8 -10 11 -10 2 0 4 5 4 10 0 6 -5 10 -11 10 -5 0
-7 -4 -4 -10z"/>
        <path d="M3674 2635 c-3 -8 -3 -19 1 -25 11 -18 25 -11 25 15 0 27 -17 34 -26
10z"/>
        <path d="M480 2619 c0 -5 5 -7 10 -4 6 3 10 8 10 11 0 2 -4 4 -10 4 -5 0 -10
-5 -10 -11z"/>
        <path d="M3590 2621 c0 -6 5 -13 10 -16 6 -3 10 1 10 9 0 9 -4 16 -10 16 -5 0
-10 -4 -10 -9z"/>
        <path d="M340 2609 c0 -5 5 -7 10 -4 6 3 10 8 10 11 0 2 -4 4 -10 4 -5 0 -10
-5 -10 -11z"/>
        <path d="M440 2610 c0 -5 5 -10 10 -10 6 0 10 5 10 10 0 6 -4 10 -10 10 -5 0
-10 -4 -10 -10z"/>
        <path d="M140 2584 c-14 -36 -13 -39 10 -19 21 19 27 45 10 45 -6 0 -15 -12
-20 -26z"/>
        <path d="M111 2584 c0 -11 3 -14 6 -6 3 7 2 16 -1 19 -3 4 -6 -2 -5 -13z"/>
        <path d="M3416 2592 c-3 -6 -1 -14 5 -17 15 -10 25 3 12 16 -7 7 -13 7 -17 1z"/>
        <path d="M190 2575 c0 -8 5 -15 10 -15 6 0 10 7 10 15 0 8 -4 15 -10 15 -5 0
-10 -7 -10 -15z"/>
        <path d="M310 2575 c0 -8 5 -15 10 -15 6 0 10 7 10 15 0 8 -4 15 -10 15 -5 0
-10 -7 -10 -15z"/>
        <path d="M3576 2581 c-4 -7 -5 -15 -2 -18 9 -9 19 4 14 18 -4 11 -6 11 -12 0z"/>
        <path d="M3540 2558 c0 -7 5 -20 10 -28 8 -12 10 -9 10 13 0 15 -4 27 -10 27
-5 0 -10 -6 -10 -12z"/>
        <path d="M3650 2560 c0 -5 5 -10 11 -10 5 0 7 5 4 10 -3 6 -8 10 -11 10 -2 0
-4 -4 -4 -10z"/>
        <path d="M3712 2553 c5 -25 28 -28 28 -4 0 12 -6 21 -16 21 -9 0 -14 -7 -12
-17z"/>
        <path d="M3764 2548 c-11 -15 -11 -81 1 -117 4 -13 22 -39 40 -56 25 -26 30
-37 22 -50 -5 -9 -6 -34 -3 -55 4 -26 2 -40 -6 -42 -10 -4 -10 -11 0 -33 18
-40 30 -17 24 45 -3 37 0 53 12 65 18 19 21 35 5 35 -6 0 -8 8 -4 19 3 10 3
26 -1 35 -6 15 -7 15 -19 -1 -11 -15 -14 -14 -29 15 -9 17 -16 38 -16 46 0 8
-6 17 -12 20 -10 3 -8 9 5 19 20 17 21 27 4 51 -11 14 -15 15 -23 4z"/>
        <path d="M100 2534 c0 -8 5 -12 10 -9 6 3 10 10 10 16 0 5 -4 9 -10 9 -5 0
-10 -7 -10 -16z"/>
        <path d="M223 2535 c-6 -10 -30 -24 -53 -30 -37 -9 -44 -15 -56 -50 -16 -47
-18 -95 -4 -95 6 0 10 15 10 33 0 23 8 40 25 55 14 12 25 26 25 32 0 5 7 10
15 10 8 0 15 -6 15 -12 0 -7 9 2 21 21 11 18 18 38 16 44 -2 6 -8 3 -14 -8z"/>
        <path d="M330 2540 c0 -5 5 -10 10 -10 6 0 10 5 10 10 0 6 -4 10 -10 10 -5 0
-10 -4 -10 -10z"/>
        <path d="M3500 2540 c0 -5 5 -10 10 -10 6 0 10 5 10 10 0 6 -4 10 -10 10 -5 0
-10 -4 -10 -10z"/>
        <path d="M3690 2510 c0 -5 5 -10 10 -10 6 0 10 5 10 10 0 6 -4 10 -10 10 -5 0
-10 -4 -10 -10z"/>
        <path d="M510 2495 c0 -8 5 -15 10 -15 6 0 10 7 10 15 0 8 -4 15 -10 15 -5 0
-10 -7 -10 -15z"/>
        <path d="M3650 2501 c0 -15 38 -56 45 -49 4 4 -1 18 -12 32 -18 26 -33 33 -33
17z"/>
        <path d="M3806 2474 c-7 -18 0 -34 15 -34 5 0 9 11 9 25 0 28 -15 34 -24 9z"/>
        <path d="M66 2448 c-9 -36 -7 -41 9 -28 16 13 21 50 6 50 -5 0 -11 -10 -15
-22z"/>
        <path d="M3600 2460 c0 -5 5 -10 10 -10 6 0 10 5 10 10 0 6 -4 10 -10 10 -5 0
-10 -4 -10 -10z"/>
        <path d="M3470 2444 c0 -10 7 -14 22 -12 32 5 35 28 4 28 -17 0 -26 -5 -26
-16z"/>
        <path d="M290 2440 c0 -5 5 -10 10 -10 6 0 10 5 10 10 0 6 -4 10 -10 10 -5 0
-10 -4 -10 -10z"/>
        <path d="M3570 2432 c0 -12 7 -25 15 -29 24 -9 25 0 5 27 l-20 25 0 -23z"/>
        <path d="M490 2429 c0 -5 5 -7 10 -4 6 3 10 8 10 11 0 2 -4 4 -10 4 -5 0 -10
-5 -10 -11z"/>
        <path d="M203 2411 c-4 -16 -11 -19 -29 -15 -29 7 -31 -7 -4 -24 17 -10 21
-10 26 3 4 8 12 15 20 15 16 0 19 26 3 35 -6 4 -13 -2 -16 -14z"/>
        <path d="M3700 2395 c0 -8 5 -15 10 -15 6 0 10 7 10 15 0 8 -4 15 -10 15 -5 0
-10 -7 -10 -15z"/>
        <path d="M3730 2401 c0 -5 7 -14 15 -21 8 -7 17 -28 20 -49 3 -20 10 -44 16
-53 13 -24 12 -25 -16 -32 -24 -6 -36 -36 -15 -36 6 0 10 5 10 10 0 6 11 10
25 10 30 0 29 -3 10 50 -8 23 -15 52 -15 64 -1 11 -9 31 -19 44 -20 23 -31 28
-31 13z"/>
        <path d="M260 2390 c0 -5 5 -10 10 -10 6 0 10 5 10 10 0 6 -4 10 -10 10 -5 0
-10 -4 -10 -10z"/>
        <path d="M3625 2370 c3 -5 8 -10 11 -10 2 0 4 5 4 10 0 6 -5 10 -11 10 -5 0
-7 -4 -4 -10z"/>
        <path d="M64 2355 c-7 -17 4 -37 17 -30 12 8 12 45 -1 45 -6 0 -13 -7 -16 -15z"/>
        <path d="M470 2361 c0 -6 5 -13 10 -16 6 -3 10 1 10 9 0 9 -4 16 -10 16 -5 0
-10 -4 -10 -9z"/>
        <path d="M3405 2360 c3 -5 8 -10 11 -10 2 0 4 5 4 10 0 6 -5 10 -11 10 -5 0
-7 -4 -4 -10z"/>
        <path d="M144 2335 c-4 -9 -2 -21 5 -28 6 -6 11 -19 11 -30 0 -10 4 -16 10
-12 13 8 7 78 -7 83 -7 2 -16 -4 -19 -13z"/>
        <path d="M3707 2343 c-4 -3 -17 -7 -30 -8 -12 -1 -22 -8 -22 -16 0 -16 42 -22
51 -7 3 5 15 2 25 -8 18 -16 19 -16 19 2 0 30 -27 53 -43 37z"/>
        <path d="M350 2330 c0 -5 5 -10 10 -10 6 0 10 5 10 10 0 6 -4 10 -10 10 -5 0
-10 -4 -10 -10z"/>
        <path d="M3540 2316 c0 -9 5 -16 10 -16 6 0 10 4 10 9 0 6 -4 13 -10 16 -5 3
-10 -1 -10 -9z"/>
        <path d="M37 2307 c-11 -29 -9 -53 4 -40 6 6 9 21 7 34 -3 21 -4 22 -11 6z"/>
        <path d="M94 2285 c-8 -20 3 -48 16 -40 13 8 13 55 0 55 -6 0 -13 -7 -16 -15z"/>
        <path d="M260 2269 c0 -5 5 -7 10 -4 6 3 10 8 10 11 0 2 -4 4 -10 4 -5 0 -10
-5 -10 -11z"/>
        <path d="M3530 2270 c0 -5 5 -10 10 -10 6 0 10 5 10 10 0 6 -4 10 -10 10 -5 0
-10 -4 -10 -10z"/>
        <path d="M180 2254 c0 -8 5 -12 10 -9 6 3 10 10 10 16 0 5 -4 9 -10 9 -5 0
-10 -7 -10 -16z"/>
        <path d="M374 2259 c-3 -6 -1 -16 5 -22 8 -8 11 -5 11 11 0 24 -5 28 -16 11z"/>
        <path d="M220 2244 c0 -8 5 -12 10 -9 6 4 8 11 5 16 -9 14 -15 11 -15 -7z"/>
        <path d="M3618 2224 c22 -17 42 -17 42 -1 0 8 -12 14 -30 14 -26 0 -27 -2 -12
-13z"/>
        <path d="M3700 2220 c0 -11 4 -20 9 -20 11 0 22 26 14 34 -12 12 -23 5 -23
-14z"/>
        <path d="M3867 2234 c-13 -14 -7 -54 8 -54 16 0 18 14 6 43 -3 10 -10 15 -14
11z"/>
        <path d="M36 2205 c-3 -10 5 -20 24 -30 26 -13 30 -13 44 1 20 20 21 38 1 31
-8 -4 -17 -2 -20 3 -9 15 -42 12 -49 -5z"/>
        <path d="M275 2207 c-4 -10 -5 -21 -1 -24 10 -10 18 4 13 24 -4 17 -4 17 -12
0z"/>
        <path d="M3790 2176 c0 -14 5 -26 10 -26 6 0 10 9 10 19 0 11 -4 23 -10 26 -6
4 -10 -5 -10 -19z"/>
        <path d="M3477 2183 c-4 -3 -7 -11 -7 -17 0 -6 5 -5 12 2 6 6 9 14 7 17 -3 3
-9 2 -12 -2z"/>
        <path d="M3515 2180 c3 -5 8 -10 11 -10 2 0 4 5 4 10 0 6 -5 10 -11 10 -5 0
-7 -4 -4 -10z"/>
        <path d="M190 2160 c0 -5 5 -10 10 -10 6 0 10 5 10 10 0 6 -4 10 -10 10 -5 0
-10 -4 -10 -10z"/>
        <path d="M20 2134 c-13 -33 -13 -64 0 -64 6 0 10 11 10 24 0 14 4 28 10 31 13
8 13 35 0 35 -6 0 -15 -12 -20 -26z"/>
        <path d="M132 2146 c1 -10 8 -17 13 -17 15 1 12 24 -3 29 -9 3 -13 -2 -10 -12z"/>
        <path d="M3720 2141 c0 -20 13 -41 21 -35 15 9 10 44 -6 44 -8 0 -15 -4 -15
-9z"/>
        <path d="M3846 2141 c-11 -17 4 -36 29 -37 29 -2 33 13 8 32 -21 16 -30 17
-37 5z"/>
        <path d="M3814 2098 c3 -17 12 -39 20 -47 18 -21 10 -47 -10 -30 -11 9 -15 8
-20 -5 -9 -23 0 -29 45 -31 34 -2 40 1 43 19 2 13 -6 29 -21 40 -13 11 -30 34
-37 53 -18 42 -28 43 -20 1z"/>
        <path d="M54 2105 c-5 -11 2 -26 20 -43 22 -23 26 -24 26 -8 0 10 -9 29 -20
43 -17 22 -21 23 -26 8z"/>
        <path d="M3656 2106 c7 -18 32 -28 39 -16 9 15 -4 30 -25 30 -13 0 -17 -5 -14
-14z"/>
        <path d="M132 2068 c3 -7 13 -15 22 -16 12 -3 17 1 14 10 -3 7 -13 15 -22 16
-12 3 -17 -1 -14 -10z"/>
        <path d="M203 2073 c-7 -2 -13 -11 -13 -20 0 -20 34 -12 38 10 3 17 -3 20 -25
10z"/>
        <path d="M298 2074 c-3 -5 1 -22 8 -39 13 -29 13 -29 13 -5 1 28 -14 57 -21
44z"/>
        <path d="M3775 2070 c-4 -6 -3 -16 3 -22 6 -6 12 -6 17 2 4 6 3 16 -3 22 -6 6
-12 6 -17 -2z"/>
        <path d="M360 2051 c0 -6 5 -13 10 -16 6 -3 10 1 10 9 0 9 -4 16 -10 16 -5 0
-10 -4 -10 -9z"/>
        <path d="M3550 2050 c0 -5 5 -10 10 -10 6 0 10 5 10 10 0 6 -4 10 -10 10 -5 0
-10 -4 -10 -10z"/>
        <path d="M3737 2033 c-10 -10 -8 -43 2 -43 9 0 21 24 21 41 0 11 -14 12 -23 2z"/>
        <path d="M6 2014 c-7 -18 0 -34 15 -34 5 0 9 11 9 25 0 28 -15 34 -24 9z"/>
        <path d="M54 2016 c-4 -10 -2 -22 4 -28 8 -8 13 -7 18 6 4 10 2 22 -4 28 -8 8
-13 7 -18 -6z"/>
        <path d="M105 2001 c-3 -16 -13 -35 -21 -41 -7 -7 -11 -16 -8 -21 11 -18 23
-8 32 24 6 17 13 40 17 50 4 9 3 17 -3 17 -6 0 -13 -13 -17 -29z"/>
        <path d="M3630 2020 c0 -5 5 -10 10 -10 6 0 10 5 10 10 0 6 -4 10 -10 10 -5 0
-10 -4 -10 -10z"/>
        <path d="M153 1975 c1 -46 17 -46 17 0 0 19 -4 35 -9 35 -5 0 -9 -16 -8 -35z"/>
        <path d="M3570 1994 c0 -8 5 -12 10 -9 6 4 8 11 5 16 -9 14 -15 11 -15 -7z"/>
        <path d="M280 1970 c0 -5 5 -10 10 -10 6 0 10 5 10 10 0 6 -4 10 -10 10 -5 0
-10 -4 -10 -10z"/>
        <path d="M3480 1970 c0 -5 5 -10 11 -10 5 0 7 5 4 10 -3 6 -8 10 -11 10 -2 0
-4 -4 -4 -10z"/>
        <path d="M3710 1953 c0 -17 5 -35 10 -38 13 -8 13 35 0 55 -7 11 -10 7 -10
-17z"/>
        <path d="M3780 1936 c0 -13 7 -27 16 -30 23 -9 28 -2 20 29 -8 32 -36 33 -36
1z"/>
        <path d="M3857 1953 c-4 -3 -7 -14 -7 -24 0 -10 -9 -34 -20 -54 -11 -20 -20
-39 -20 -44 0 -5 9 -11 20 -14 11 -3 20 -12 20 -20 0 -17 -36 -84 -57 -105 -7
-7 -13 -20 -13 -29 0 -25 24 -9 42 28 9 20 23 41 32 48 9 8 16 22 16 32 0 27
18 33 23 7 2 -13 4 -4 4 20 0 31 -3 42 -12 38 -16 -6 -35 13 -35 35 0 10 12
26 26 36 25 18 25 19 6 36 -10 9 -22 14 -25 10z"/>
        <path d="M0 1930 c0 -5 5 -10 10 -10 6 0 10 5 10 10 0 6 -4 10 -10 10 -5 0
-10 -4 -10 -10z"/>
        <path d="M44 1908 c9 -43 26 -60 26 -26 0 34 -9 58 -22 58 -6 0 -8 -13 -4 -32z"/>
        <path d="M190 1903 c0 -23 17 -49 26 -41 9 10 -4 58 -16 58 -6 0 -10 -8 -10
-17z"/>
        <path d="M3742 1889 c1 -12 9 -24 16 -27 9 -3 13 3 10 19 -1 12 -9 24 -16 27
-9 3 -13 -3 -10 -19z"/>
        <path d="M130 1885 c0 -8 -9 -19 -20 -25 -23 -12 -25 -37 -6 -63 12 -15 14
-13 19 25 3 23 11 44 16 46 14 5 14 32 1 32 -5 0 -10 -7 -10 -15z"/>
        <path d="M361 1874 c0 -11 3 -14 6 -6 3 7 2 16 -1 19 -3 4 -6 -2 -5 -13z"/>
        <path d="M20 1859 c0 -8 -3 -24 -6 -36 -5 -17 -2 -23 10 -23 18 0 40 -46 32
-67 -3 -7 -13 -13 -21 -13 -12 0 -15 -8 -13 -27 4 -36 26 -41 34 -8 4 17 11
24 20 21 16 -6 19 20 4 29 -5 3 -10 19 -10 35 0 16 -4 32 -10 35 -5 3 -10 14
-10 24 0 10 -7 24 -15 31 -12 10 -15 10 -15 -1z"/>
        <path d="M3680 1860 c0 -5 5 -10 10 -10 6 0 10 5 10 10 0 6 -4 10 -10 10 -5 0
-10 -4 -10 -10z"/>
        <path d="M440 1820 c0 -5 5 -10 10 -10 6 0 10 5 10 10 0 6 -4 10 -10 10 -5 0
-10 -4 -10 -10z"/>
        <path d="M3776 1813 c-3 -4 -6 -11 -6 -16 0 -6 3 -7 7 -4 3 4 15 0 25 -10 14
-13 18 -13 18 -2 0 16 -35 41 -44 32z"/>
        <path d="M3718 1780 c-3 -19 -1 -29 6 -27 14 4 21 57 8 57 -5 0 -12 -14 -14
-30z"/>
        <path d="M172 1784 c1 -9 9 -19 16 -22 9 -3 13 2 10 14 -1 9 -9 19 -16 22 -9
3 -13 -2 -10 -14z"/>
        <path d="M250 1766 c0 -8 5 -18 10 -21 6 -3 10 1 10 9 0 8 -4 18 -10 21 -5 3
-10 -1 -10 -9z"/>
        <path d="M3645 1771 c-3 -5 -1 -12 5 -16 5 -3 10 1 10 9 0 18 -6 21 -15 7z"/>
        <path d="M340 1739 c0 -11 5 -17 10 -14 6 3 10 13 10 21 0 8 -4 14 -10 14 -5
0 -10 -9 -10 -21z"/>
        <path d="M3740 1751 c0 -6 5 -13 10 -16 6 -3 10 1 10 9 0 9 -4 16 -10 16 -5 0
-10 -4 -10 -9z"/>
        <path d="M3876 1741 c-4 -5 -2 -20 3 -33 9 -21 10 -21 10 10 1 32 -3 39 -13
23z"/>
        <path d="M108 1723 c-2 -5 -5 -24 -6 -43 l-2 -35 15 34 c8 18 15 37 15 42 0
11 -17 12 -22 2z"/>
        <path d="M140 1722 c0 -5 9 -12 21 -15 13 -3 19 -1 16 6 -5 15 -37 22 -37 9z"/>
        <path d="M212 1699 c2 -7 10 -15 17 -17 8 -3 12 1 9 9 -2 7 -10 15 -17 17 -8
3 -12 -1 -9 -9z"/>
        <path d="M3710 1670 c0 -16 2 -30 5 -30 2 0 11 14 20 30 15 29 15 30 -5 30
-16 0 -20 -7 -20 -30z"/>
        <path d="M128 1654 c-11 -11 -10 -39 4 -69 12 -28 35 -35 23 -7 -4 9 -10 32
-14 50 -3 19 -9 30 -13 26z"/>
        <path d="M3500 1651 c0 -5 7 -12 16 -15 24 -9 28 -7 14 9 -14 17 -30 20 -30 6z"/>
        <path d="M3635 1630 c-9 -17 -14 -37 -12 -43 2 -7 12 5 22 26 22 46 13 62 -10
17z"/>
        <path d="M3867 1646 c-6 -15 -10 -16 -23 -5 -13 10 -17 10 -24 -1 -9 -15 -2
-40 11 -40 15 0 51 40 46 53 -2 6 -6 3 -10 -7z"/>
        <path d="M60 1635 c0 -8 -6 -24 -12 -35 -10 -15 -10 -22 0 -32 15 -15 18 -11
27 40 4 28 3 42 -4 42 -6 0 -11 -7 -11 -15z"/>
        <path d="M180 1630 c0 -11 5 -20 10 -20 6 0 10 9 10 20 0 11 -4 20 -10 20 -5
0 -10 -9 -10 -20z"/>
        <path d="M3560 1620 c0 -5 5 -10 10 -10 6 0 10 5 10 10 0 6 -4 10 -10 10 -5 0
-10 -4 -10 -10z"/>
        <path d="M3740 1607 c0 -6 13 -18 30 -25 22 -10 31 -23 37 -50 l7 -37 6 30 c4
21 11 30 25 30 13 0 21 8 23 22 3 20 0 21 -30 16 -24 -3 -38 0 -47 11 -16 19
-51 21 -51 3z"/>
        <path d="M352 1590 c0 -14 2 -19 5 -12 2 6 2 18 0 25 -3 6 -5 1 -5 -13z"/>
        <path d="M90 1575 c0 -30 15 -55 32 -55 13 0 9 18 -12 52 l-20 33 0 -30z"/>
        <path d="M178 1562 c-6 -44 3 -56 18 -26 15 28 12 54 -5 54 -5 0 -11 -13 -13
-28z"/>
        <path d="M256 1582 c-3 -6 5 -23 19 -39 29 -33 33 -20 6 20 -10 16 -21 24 -25
19z"/>
        <path d="M380 1581 c0 -6 5 -13 10 -16 6 -3 10 1 10 9 0 9 -4 16 -10 16 -5 0
-10 -4 -10 -9z"/>
        <path d="M3690 1570 c0 -5 5 -10 10 -10 6 0 10 5 10 10 0 6 -4 10 -10 10 -5 0
-10 -4 -10 -10z"/>
        <path d="M381 1534 c0 -11 3 -14 6 -6 3 7 2 16 -1 19 -3 4 -6 -2 -5 -13z"/>
        <path d="M56 1531 c-8 -13 4 -44 21 -54 9 -6 12 -19 8 -40 -4 -18 -2 -43 4
-57 l10 -25 0 27 c1 14 7 28 14 31 10 4 10 7 0 18 -18 18 -16 29 3 29 10 0 14
-5 10 -15 -6 -16 38 -44 50 -32 7 7 -61 77 -75 77 -6 0 -13 11 -17 25 -6 26
-18 32 -28 16z"/>
        <path d="M3738 1534 c-5 -4 -8 -19 -8 -33 0 -18 3 -22 11 -14 6 6 9 21 7 33
-1 12 -6 18 -10 14z"/>
        <path d="M3630 1519 c0 -5 5 -7 10 -4 6 3 10 8 10 11 0 2 -4 4 -10 4 -5 0 -10
-5 -10 -11z"/>
        <path d="M3696 1521 c-4 -7 -5 -15 -2 -18 9 -9 19 4 14 18 -4 11 -6 11 -12 0z"/>
        <path d="M3467 1506 c-6 -16 2 -28 14 -20 12 7 11 34 0 34 -5 0 -11 -6 -14
-14z"/>
        <path d="M3633 1485 c-3 -9 -3 -19 1 -22 7 -7 36 16 36 28 0 15 -30 10 -37 -6z"/>
        <path d="M205 1470 c-7 -12 2 -30 16 -30 5 0 9 9 9 20 0 21 -15 27 -25 10z"/>
        <path d="M3757 1473 c-4 -3 -7 -15 -7 -26 0 -15 5 -18 23 -13 12 3 32 6 45 6
13 0 22 6 22 15 0 18 -12 19 -28 3 -9 -9 -16 -8 -30 5 -10 9 -22 14 -25 10z"/>
        <path d="M3380 1435 c0 -8 5 -15 10 -15 6 0 10 7 10 15 0 8 -4 15 -10 15 -5 0
-10 -7 -10 -15z"/>
        <path d="M465 1430 c3 -5 10 -10 16 -10 5 0 9 5 9 10 0 6 -7 10 -16 10 -8 0
-12 -4 -9 -10z"/>
        <path d="M3555 1430 c-3 -5 -1 -10 4 -10 6 0 11 5 11 10 0 6 -2 10 -4 10 -3 0
-8 -4 -11 -10z"/>
        <path d="M260 1422 c0 -18 12 -42 21 -42 14 0 10 26 -6 40 -9 8 -15 8 -15 2z"/>
        <path d="M300 1409 c0 -11 5 -17 10 -14 6 3 10 13 10 21 0 8 -4 14 -10 14 -5
0 -10 -9 -10 -21z"/>
        <path d="M3678 1399 c-22 -38 -23 -49 -3 -49 22 0 18 -17 -10 -48 -26 -28 -32
-56 -15 -67 6 -3 10 5 10 18 0 14 11 35 25 48 26 25 32 53 15 64 -15 9 -12 25
5 25 8 0 15 9 15 20 0 30 -23 24 -42 -11z"/>
        <path d="M190 1396 c0 -8 5 -18 10 -21 6 -3 10 1 10 9 0 8 -4 18 -10 21 -5 3
-10 -1 -10 -9z"/>
        <path d="M3755 1374 c-30 -33 -31 -40 -5 -47 14 -4 20 -14 20 -34 1 -25 2 -26
11 -9 6 10 9 33 6 52 -3 18 -1 36 4 39 5 4 9 10 9 16 0 17 -21 9 -45 -17z"/>
        <path d="M3610 1374 c0 -14 3 -14 15 -4 8 7 15 14 15 16 0 2 -7 4 -15 4 -8 0
-15 -7 -15 -16z"/>
        <path d="M138 1348 c-8 -50 -4 -101 8 -105 6 -2 8 10 6 31 -5 44 15 57 40 26
10 -12 22 -20 26 -16 4 4 -1 12 -11 17 -9 6 -17 18 -17 28 0 16 -29 51 -42 51
-3 0 -8 -15 -10 -32z"/>
        <path d="M235 1360 c-8 -13 3 -30 21 -30 18 0 18 14 0 29 -10 8 -16 9 -21 1z"/>
        <path d="M3427 1354 c-9 -10 2 -24 19 -24 8 0 14 7 14 15 0 15 -21 21 -33 9z"/>
        <path d="M3530 1349 c0 -5 5 -7 10 -4 6 3 10 8 10 11 0 2 -4 4 -10 4 -5 0 -10
-5 -10 -11z"/>
        <path d="M3616 1306 c-18 -28 -20 -36 -8 -36 10 0 35 50 29 57 -2 2 -12 -8
-21 -21z"/>
        <path d="M250 1305 c0 -8 4 -15 10 -15 5 0 7 7 4 15 -4 8 -8 15 -10 15 -2 0
-4 -7 -4 -15z"/>
        <path d="M355 1310 c3 -5 8 -10 11 -10 2 0 4 5 4 10 0 6 -5 10 -11 10 -5 0 -7
-4 -4 -10z"/>
        <path d="M3570 1305 c0 -9 -7 -18 -15 -21 -8 -4 -15 -12 -15 -20 0 -19 6 -18
30 6 21 21 27 50 10 50 -5 0 -10 -7 -10 -15z"/>
        <path d="M385 1301 c-8 -15 3 -31 21 -31 9 0 14 7 12 17 -4 20 -24 28 -33 14z"/>
        <path d="M1681 1287 c-14 -6 -34 -28 -45 -47 -18 -30 -21 -52 -21 -165 0 -89
4 -141 14 -163 14 -33 55 -62 86 -62 32 0 85 32 85 51 0 26 -16 32 -42 15 -32
-20 -65 -5 -83 39 -18 42 -19 185 -2 235 14 41 56 62 87 42 11 -7 20 -9 20 -5
0 5 3 17 6 29 9 36 -57 56 -105 31z m6 -39 c-3 -8 -6 -5 -6 6 -1 11 2 17 5 13
3 -3 4 -12 1 -19z m-30 -304 c-3 -3 -12 -4 -19 -1 -8 3 -5 6 6 6 11 1 17 -2
13 -5z"/>
        <path d="M2023 1285 c-3 -9 -3 -30 1 -47 3 -17 3 -53 0 -80 l-7 -49 -46 3 -46
3 -3 88 -3 87 -27 0 -27 0 0 -220 0 -220 30 0 30 0 -4 96 c-3 106 0 114 55
114 49 0 56 -18 53 -118 l-4 -89 27 0 27 0 0 224 1 223 -25 0 c-14 0 -28 -7
-32 -15z m-113 -15 c0 -5 -4 -10 -10 -10 -5 0 -10 5 -10 10 0 6 5 10 10 10 6
0 10 -4 10 -10z m0 -24 c0 -3 -4 -8 -10 -11 -5 -3 -10 -1 -10 4 0 6 5 11 10
11 6 0 10 -2 10 -4z m-13 -155 c-15 -6 -18 6 -10 35 l7 29 6 -30 c3 -16 2 -32
-3 -34z m88 -11 c-3 -5 -13 -6 -21 -3 -12 4 -13 8 -3 14 15 9 32 2 24 -11z"/>
        <path d="M2540 1291 c-49 -14 -62 -58 -61 -204 1 -163 7 -192 38 -217 38 -29
86 -26 125 9 l33 29 4 137 c4 166 -10 218 -65 241 -36 15 -37 15 -74 5z m74
-73 c19 -27 23 -226 5 -277 -10 -28 -15 -32 -43 -29 -28 3 -32 8 -44 53 -16
62 -11 237 8 260 18 22 56 18 74 -7z m-91 -288 c3 -11 1 -20 -4 -20 -5 0 -9 9
-9 20 0 11 2 20 4 20 2 0 6 -9 9 -20z"/>
        <path d="M2795 1291 c-50 -21 -60 -46 -64 -167 -5 -159 4 -221 36 -250 29 -27
89 -33 115 -11 43 34 48 57 48 205 0 163 -9 194 -65 218 -39 16 -42 16 -70 5z
m73 -69 c8 -11 12 -57 12 -147 0 -144 -8 -169 -50 -163 -40 5 -50 41 -50 176
0 108 2 124 20 142 21 21 46 18 68 -8z m-88 -304 c0 -5 -4 -8 -10 -8 -5 0 -10
10 -10 23 0 18 2 19 10 7 5 -8 10 -18 10 -22z"/>
        <path d="M3711 1267 c-15 -36 -57 -80 -83 -90 -26 -9 -22 -27 7 -27 15 0 31 9
41 24 9 15 21 22 30 19 10 -3 14 2 14 19 0 13 5 29 10 34 6 6 7 20 3 32 -8 20
-9 20 -22 -11z"/>
        <path d="M280 1283 c0 -7 13 -27 30 -45 38 -43 39 -23 0 22 -16 19 -29 29 -30
23z"/>
        <path d="M711 1262 c6 -17 9 -111 7 -220 l-3 -192 27 0 27 0 3 153 3 152 33
-53 c19 -28 38 -50 42 -47 5 3 21 28 36 55 15 28 31 50 36 50 6 0 8 -64 6
-155 l-3 -155 27 0 27 0 3 220 3 220 -26 0 c-22 0 -32 -11 -65 -72 -22 -40
-44 -73 -49 -72 -6 0 -27 33 -48 72 -34 64 -41 72 -67 72 -27 0 -28 -1 -19
-28z m86 -104 c-3 -8 -6 -5 -6 6 -1 11 2 17 5 13 3 -3 4 -12 1 -19z m163 -202
c0 -3 -4 -8 -10 -11 -5 -3 -10 -1 -10 4 0 6 5 11 10 11 6 0 10 -2 10 -4z"/>
        <path d="M1120 1257 c0 -25 -45 -257 -75 -385 -5 -21 -2 -23 22 -20 24 3 29 9
34 42 7 40 21 56 55 56 30 0 44 -19 44 -63 0 -37 1 -38 33 -35 22 2 31 7 29
18 -2 8 -22 106 -45 218 l-41 202 -28 0 c-25 0 -28 -4 -28 -33z m52 -202 c3
-57 2 -60 -21 -63 -23 -4 -24 -3 -18 56 9 105 34 109 39 7z m28 61 c0 -3 -4
-8 -10 -11 -5 -3 -10 -1 -10 4 0 6 5 11 10 11 6 0 10 -2 10 -4z"/>
        <path d="M1326 1274 c-3 -9 -6 -17 -6 -19 0 -1 20 -6 44 -9 l44 -7 7 -86 c4
-48 5 -135 3 -195 l-6 -108 32 0 31 0 -3 177 c-4 220 -3 223 47 223 34 0 38 3
34 20 -5 18 -14 20 -113 20 -89 0 -109 -3 -114 -16z"/>
        <path d="M2244 1123 c6 -106 5 -186 -1 -220 l-10 -55 68 5 c37 2 75 9 83 16
34 29 48 154 22 201 -12 21 -12 29 0 52 25 49 14 137 -20 160 -6 4 -42 8 -81
8 l-70 0 9 -167z m142 136 c3 -6 2 -15 -3 -20 -5 -5 -14 0 -21 11 -10 17 -10
20 2 20 8 0 18 -5 22 -11z m-25 -40 c20 -39 -11 -119 -48 -119 -10 0 -13 18
-13 70 0 68 1 70 25 70 15 0 29 -8 36 -21z m30 -66 c-12 -20 -14 -14 -5 12 4
9 9 14 11 11 3 -2 0 -13 -6 -23z m-11 -43 c0 -5 -4 -10 -10 -10 -5 0 -10 5
-10 10 0 6 5 10 10 10 6 0 10 -4 10 -10z m-30 -30 c0 -5 -4 -10 -10 -10 -5 0
-10 5 -10 10 0 6 5 10 10 10 6 0 10 -4 10 -10z m20 -87 c0 -57 -14 -83 -45
-83 -24 0 -25 3 -25 59 0 50 4 62 22 75 31 22 48 4 48 -51z m27 5 c-3 -7 -5
-2 -5 12 0 14 2 19 5 13 2 -7 2 -19 0 -25z m-120 -85 c-3 -10 -5 -4 -5 12 0
17 2 24 5 18 2 -7 2 -21 0 -30z"/>
        <path d="M2990 1072 l0 -219 28 -1 27 -1 -3 82 c-3 61 0 87 12 102 14 20 15
19 25 -8 6 -16 11 -34 11 -42 0 -7 7 -26 15 -41 8 -16 15 -44 15 -61 0 -31 2
-33 34 -33 l35 0 -29 84 c-15 47 -34 109 -40 138 -12 53 -12 55 28 136 l41 82
-35 0 c-25 0 -34 -4 -34 -16 0 -23 -62 -144 -74 -144 -5 0 -6 33 -3 80 l6 80
-29 0 -30 0 0 -218z m88 19 c-6 -10 -18 -17 -26 -13 -11 4 -8 8 9 18 31 17 31
17 17 -5z"/>
        <path d="M182 1251 c-9 -5 -11 -23 -6 -64 6 -51 8 -55 20 -39 7 10 12 27 11
38 -1 13 3 18 16 16 24 -4 21 10 -6 36 -13 13 -27 18 -35 13z"/>
        <path d="M495 1240 c3 -5 11 -10 16 -10 6 0 7 5 4 10 -3 6 -11 10 -16 10 -6 0
-7 -4 -4 -10z"/>
        <path d="M255 1219 c-4 -6 0 -18 9 -27 15 -15 16 -15 16 5 0 25 -15 38 -25 22z"/>
        <path d="M3582 1213 c5 -25 28 -28 28 -4 0 12 -6 21 -16 21 -9 0 -14 -7 -12
-17z"/>
        <path d="M3355 1200 c-3 -5 -1 -10 4 -10 6 0 11 5 11 10 0 6 -2 10 -4 10 -3 0
-8 -4 -11 -10z"/>
        <path d="M3535 1189 c-4 -6 -5 -13 -2 -16 7 -7 27 6 27 18 0 12 -17 12 -25 -2z"/>
        <path d="M3270 1175 c0 -8 5 -15 10 -15 6 0 10 7 10 15 0 8 -4 15 -10 15 -5 0
-10 -7 -10 -15z"/>
        <path d="M3390 1174 c0 -14 3 -14 15 -4 8 7 15 14 15 16 0 2 -7 4 -15 4 -8 0
-15 -7 -15 -16z"/>
        <path d="M340 1155 c-7 -8 -20 -15 -30 -15 -15 0 -17 -7 -12 -47 5 -50 17 -83
30 -83 11 0 2 69 -9 76 -14 8 -11 34 4 34 14 0 47 31 47 43 0 12 -17 7 -30 -8z"/>
        <path d="M3710 1156 c0 -7 -9 -16 -20 -19 -23 -6 -27 -27 -5 -27 9 0 12 -6 8
-17 -10 -28 1 -12 25 35 18 34 19 42 7 42 -8 0 -15 -6 -15 -14z"/>
        <path d="M230 1142 c0 -15 28 -47 35 -40 11 11 -5 48 -21 48 -8 0 -14 -4 -14
-8z"/>
        <path d="M3480 1125 c0 -8 6 -15 14 -15 8 0 16 7 20 15 4 10 -1 15 -14 15 -11
0 -20 -7 -20 -15z"/>
        <path d="M650 1110 c0 -5 5 -10 10 -10 6 0 10 5 10 10 0 6 -4 10 -10 10 -5 0
-10 -4 -10 -10z"/>
        <path d="M3527 1114 c-4 -4 -7 -14 -7 -23 0 -11 3 -12 11 -4 6 6 10 16 7 23
-2 6 -7 8 -11 4z"/>
        <path d="M440 1106 c0 -2 7 -9 15 -16 12 -10 15 -10 15 4 0 9 -7 16 -15 16 -8
0 -15 -2 -15 -4z"/>
        <path d="M3555 1099 c-10 -15 3 -25 16 -12 7 7 7 13 1 17 -6 3 -14 1 -17 -5z"/>
        <path d="M3630 1094 c0 -8 5 -12 10 -9 6 3 10 10 10 16 0 5 -4 9 -10 9 -5 0
-10 -7 -10 -16z"/>
        <path d="M416 1091 c-4 -7 -5 -15 -2 -18 9 -9 19 4 14 18 -4 11 -6 11 -12 0z"/>
        <path d="M592 1089 c2 -7 10 -15 17 -17 8 -3 12 1 9 9 -2 7 -10 15 -17 17 -8
3 -12 -1 -9 -9z"/>
        <path d="M3593 1083 c-7 -2 -13 -12 -13 -22 0 -12 9 -17 32 -19 18 -2 36 -8
40 -15 6 -9 10 -8 18 3 13 20 7 35 -13 35 -9 0 -22 6 -29 13 -13 13 -16 13
-35 5z"/>
        <path d="M240 1061 c-13 -26 23 -91 51 -91 26 0 24 16 -6 36 -18 12 -23 22
-19 39 7 30 -12 41 -26 16z"/>
        <path d="M385 1060 c3 -5 8 -10 11 -10 2 0 4 5 4 10 0 6 -5 10 -11 10 -5 0 -7
-4 -4 -10z"/>
        <path d="M3350 1054 c0 -8 5 -12 10 -9 6 3 10 10 10 16 0 5 -4 9 -10 9 -5 0
-10 -7 -10 -16z"/>
        <path d="M3440 1050 c0 -5 5 -10 10 -10 6 0 10 5 10 10 0 6 -4 10 -10 10 -5 0
-10 -4 -10 -10z"/>
        <path d="M3240 1024 c0 -8 5 -12 10 -9 6 3 10 10 10 16 0 5 -4 9 -10 9 -5 0
-10 -7 -10 -16z"/>
        <path d="M3365 1030 c-3 -5 1 -10 9 -10 9 0 16 5 16 10 0 6 -4 10 -9 10 -6 0
-13 -4 -16 -10z"/>
        <path d="M3510 1030 c0 -5 5 -10 10 -10 6 0 10 5 10 10 0 6 -4 10 -10 10 -5 0
-10 -4 -10 -10z"/>
        <path d="M530 1021 c0 -6 5 -13 10 -16 6 -3 10 1 10 9 0 9 -4 16 -10 16 -5 0
-10 -4 -10 -9z"/>
        <path d="M628 1008 c12 -12 24 -19 28 -15 10 10 -16 37 -34 37 -13 0 -12 -4 6
-22z"/>
        <path d="M457 1005 c-8 -19 13 -31 24 -14 13 20 11 29 -5 29 -8 0 -16 -7 -19
-15z"/>
        <path d="M3607 1003 c-4 -3 -7 -13 -7 -21 0 -12 3 -12 15 -2 8 7 15 16 15 21
0 11 -14 12 -23 2z"/>
        <path d="M3420 991 c0 -5 7 -12 15 -15 13 -4 14 -10 5 -26 -7 -14 -8 -20 0
-20 10 0 30 40 30 61 0 5 -11 9 -25 9 -14 0 -25 -4 -25 -9z"/>
        <path d="M3505 979 c-4 -11 -4 -23 -2 -26 9 -8 27 7 27 22 0 23 -18 27 -25 4z"/>
        <path d="M327 984 c-9 -10 4 -34 19 -34 8 0 14 9 14 20 0 19 -19 27 -33 14z"/>
        <path d="M3385 979 c-10 -15 3 -25 16 -12 7 7 7 13 1 17 -6 3 -14 1 -17 -5z"/>
        <path d="M406 971 c-10 -15 3 -53 17 -48 17 5 18 21 4 41 -10 13 -16 16 -21 7z"/>
        <path d="M3542 963 c5 -25 28 -28 28 -4 0 12 -6 21 -16 21 -9 0 -14 -7 -12
-17z"/>
        <path d="M3262 952 c-13 -10 -20 -21 -17 -24 8 -7 65 23 65 35 0 13 -24 7 -48
-11z"/>
        <path d="M625 950 c3 -5 11 -10 16 -10 6 0 7 5 4 10 -3 6 -11 10 -16 10 -6 0
-7 -4 -4 -10z"/>
        <path d="M3572 935 c-13 -14 -22 -30 -20 -36 5 -14 58 28 58 47 0 20 -12 17
-38 -11z"/>
        <path d="M3500 921 c-5 -11 -10 -31 -10 -45 0 -33 -30 -96 -46 -96 -7 0 -14
12 -16 27 -3 30 -32 43 -51 24 -8 -8 -5 -15 11 -27 23 -16 30 -58 12 -69 -15
-9 -12 -45 4 -45 20 0 37 25 30 43 -3 10 4 22 21 33 30 20 51 64 60 129 8 48
2 57 -15 26z"/>
        <path d="M300 923 c0 -15 44 -53 62 -53 24 0 39 -24 36 -61 -3 -30 0 -34 20
-33 12 0 22 -5 22 -11 0 -6 11 -21 25 -33 14 -12 25 -27 25 -33 0 -7 -9 -4
-20 6 -32 29 -23 9 14 -31 l35 -38 -10 40 c-6 21 -10 47 -10 56 0 9 -7 22 -15
29 -8 6 -14 22 -14 35 0 12 -4 26 -10 29 -5 3 -10 15 -10 27 0 16 -5 19 -21
15 -16 -4 -25 3 -42 31 -16 27 -23 32 -25 19 -4 -21 -20 -22 -44 0 -10 9 -18
12 -18 6z m140 -99 c0 -8 -4 -12 -10 -9 -5 3 -10 13 -10 21 0 8 5 12 10 9 6
-3 10 -13 10 -21z"/>
        <path d="M530 899 c0 -24 23 -21 28 4 2 10 -3 17 -12 17 -10 0 -16 -9 -16 -21z"/>
        <path d="M472 893 c4 -22 38 -30 38 -10 0 8 -7 18 -16 21 -23 9 -26 8 -22 -11z"/>
        <path d="M3387 883 c-4 -3 -7 -11 -7 -17 0 -6 5 -5 12 2 6 6 9 14 7 17 -3 3
-9 2 -12 -2z"/>
        <path d="M3412 879 c2 -6 8 -10 13 -10 5 0 11 4 13 10 2 6 -4 11 -13 11 -9 0
-15 -5 -13 -11z"/>
        <path d="M575 843 c7 -21 18 -39 24 -41 14 -5 14 -1 -4 42 -20 47 -36 47 -20
-1z"/>
        <path d="M3552 863 c-7 -3 -20 -19 -29 -36 l-16 -32 23 20 c19 17 47 57 38 54
-2 0 -9 -3 -16 -6z"/>
        <path d="M3310 850 c0 -5 5 -10 10 -10 6 0 10 5 10 10 0 6 -4 10 -10 10 -5 0
-10 -4 -10 -10z"/>
        <path d="M660 841 c0 -6 5 -13 10 -16 6 -3 10 1 10 9 0 9 -4 16 -10 16 -5 0
-10 -4 -10 -9z"/>
        <path d="M3240 830 c0 -5 5 -10 10 -10 6 0 10 5 10 10 0 6 -4 10 -10 10 -5 0
-10 -4 -10 -10z"/>
        <path d="M3347 833 c-4 -3 -7 -11 -7 -17 0 -6 5 -5 12 2 6 6 9 14 7 17 -3 3
-9 2 -12 -2z"/>
        <path d="M3140 819 c0 -5 5 -7 10 -4 6 3 10 8 10 11 0 2 -4 4 -10 4 -5 0 -10
-5 -10 -11z"/>
        <path d="M492 808 c6 -18 28 -21 28 -4 0 9 -7 16 -16 16 -9 0 -14 -5 -12 -12z"/>
        <path d="M590 772 c0 -14 39 -46 47 -39 3 4 -2 16 -12 27 -19 21 -35 26 -35
12z"/>
        <path d="M762 768 c6 -18 28 -21 28 -4 0 9 -7 16 -16 16 -9 0 -14 -5 -12 -12z"/>
        <path d="M540 761 c0 -12 29 -35 36 -28 11 10 -5 37 -21 37 -8 0 -15 -4 -15
-9z"/>
        <path d="M712 735 c1 -16 9 -30 16 -33 18 -6 15 33 -4 49 -14 11 -15 9 -12
-16z"/>
        <path d="M3177 753 c-4 -3 -7 -15 -7 -25 0 -26 24 -17 28 10 3 21 -8 29 -21
15z"/>
        <path d="M3460 745 c0 -8 5 -15 10 -15 6 0 10 7 10 15 0 8 -4 15 -10 15 -5 0
-10 -7 -10 -15z"/>
        <path d="M3326 734 c-3 -8 -6 -18 -6 -20 0 -9 49 -3 55 7 8 12 6 15 -21 23
-15 5 -24 2 -28 -10z"/>
        <path d="M3030 730 c0 -5 7 -10 15 -10 8 0 15 5 15 10 0 6 -7 10 -15 10 -8 0
-15 -4 -15 -10z"/>
        <path d="M3280 714 c0 -9 5 -14 12 -12 18 6 21 28 4 28 -9 0 -16 -7 -16 -16z"/>
        <path d="M570 691 c0 -5 5 -13 10 -16 6 -3 10 -2 10 4 0 5 -4 13 -10 16 -5 3
-10 2 -10 -4z"/>
        <path d="M630 688 c0 -15 68 -58 90 -58 10 0 10 3 0 15 -7 8 -18 15 -25 15 -7
0 -24 9 -39 21 -19 15 -26 17 -26 7z"/>
        <path d="M980 670 c0 -5 5 -10 10 -10 6 0 10 5 10 10 0 6 -4 10 -10 10 -5 0
-10 -4 -10 -10z"/>
        <path d="M2890 660 c0 -5 4 -10 9 -10 6 0 13 5 16 10 3 6 -1 10 -9 10 -9 0
-16 -4 -16 -10z"/>
        <path d="M3074 648 c3 -13 6 -29 6 -35 0 -15 9 -16 29 -4 11 7 10 13 -5 35
-23 32 -38 33 -30 4z"/>
        <path d="M550 641 c0 -25 19 -38 31 -20 12 19 6 33 -14 37 -11 2 -17 -3 -17
-17z"/>
        <path d="M3193 635 c-15 -13 -23 -25 -16 -25 6 0 14 4 17 9 3 5 22 12 41 15
40 8 47 26 11 26 -14 0 -38 -11 -53 -25z"/>
        <path d="M3380 645 c-7 -8 -18 -15 -25 -15 -6 0 -20 -9 -29 -19 -17 -19 -17
-19 1 -16 10 2 21 4 25 4 7 1 52 61 45 61 -3 0 -10 -7 -17 -15z"/>
        <path d="M970 630 c14 -10 27 -17 29 -14 6 5 -31 33 -44 33 -5 1 1 -8 15 -19z"/>
        <path d="M3317 643 c-4 -3 -7 -11 -7 -17 0 -6 5 -5 12 2 6 6 9 14 7 17 -3 3
-9 2 -12 -2z"/>
        <path d="M630 626 c0 -9 7 -16 16 -16 17 0 14 22 -4 28 -7 2 -12 -3 -12 -12z"/>
        <path d="M1150 630 c0 -5 7 -10 16 -10 8 0 12 5 9 10 -3 6 -10 10 -16 10 -5 0
-9 -4 -9 -10z"/>
        <path d="M2960 624 c0 -8 5 -12 10 -9 6 3 10 10 10 16 0 5 -4 9 -10 9 -5 0
-10 -7 -10 -16z"/>
        <path d="M742 619 c2 -7 10 -15 17 -17 8 -3 12 1 9 9 -2 7 -10 15 -17 17 -8 3
-12 -1 -9 -9z"/>
        <path d="M860 615 c7 -9 15 -13 17 -11 7 7 -7 26 -19 26 -6 0 -6 -6 2 -15z"/>
        <path d="M3115 599 c-4 -6 -5 -13 -2 -16 7 -7 27 6 27 18 0 12 -17 12 -25 -2z"/>
        <path d="M600 580 c0 -11 7 -20 15 -20 8 0 15 9 15 20 0 11 -7 20 -15 20 -8 0
-15 -9 -15 -20z"/>
        <path d="M695 590 c-3 -5 6 -26 21 -45 29 -38 44 -39 27 -2 -6 12 -14 30 -17
40 -6 19 -21 23 -31 7z"/>
        <path d="M3242 578 c-17 -17 -15 -35 5 -42 18 -7 33 9 33 37 0 20 -20 23 -38
5z"/>
        <path d="M820 560 c0 -5 5 -10 10 -10 6 0 10 5 10 10 0 6 -4 10 -10 10 -5 0
-10 -4 -10 -10z"/>
        <path d="M3025 560 c-3 -5 -1 -10 4 -10 6 0 11 5 11 10 0 6 -2 10 -4 10 -3 0
-8 -4 -11 -10z"/>
        <path d="M667 545 c-4 -8 -14 -15 -24 -15 -25 0 -5 -14 50 -34 27 -10 51 -15
55 -12 9 9 -18 26 -41 26 -13 0 -17 6 -15 22 4 25 -17 36 -25 13z"/>
        <path d="M880 550 c0 -5 7 -10 16 -10 8 0 12 5 9 10 -3 6 -10 10 -16 10 -5 0
-9 -4 -9 -10z"/>
        <path d="M2753 553 c-18 -7 -16 -23 2 -23 8 0 15 7 15 15 0 8 -1 15 -2 14 -2
0 -9 -3 -15 -6z"/>
        <path d="M3175 549 c-4 -6 -5 -13 -2 -16 7 -7 27 6 27 18 0 12 -17 12 -25 -2z"/>
        <path d="M2675 540 c-3 -5 -1 -10 4 -10 6 0 11 5 11 10 0 6 -2 10 -4 10 -3 0
-8 -4 -11 -10z"/>
        <path d="M2848 543 c7 -3 16 -2 19 1 4 3 -2 6 -13 5 -11 0 -14 -3 -6 -6z"/>
        <path d="M3098 526 c-15 -11 -25 -36 -15 -36 13 0 67 33 67 41 0 13 -32 10
-52 -5z"/>
        <path d="M770 516 c0 -18 30 -30 43 -17 5 5 6 14 3 20 -10 16 -46 13 -46 -3z"/>
        <path d="M958 513 c7 -3 16 -2 19 1 4 3 -2 6 -13 5 -11 0 -14 -3 -6 -6z"/>
        <path d="M3245 510 c-3 -5 -2 -10 4 -10 5 0 13 5 16 10 3 6 2 10 -4 10 -5 0
-13 -4 -16 -10z"/>
        <path d="M2860 503 c1 -19 19 -35 34 -30 26 10 19 37 -9 37 -14 0 -25 -3 -25
-7z"/>
        <path d="M2962 488 c-20 -20 -14 -24 25 -20 34 4 36 3 24 -12 -8 -9 -12 -17
-10 -19 43 -24 50 -26 74 -17 36 14 45 13 45 -5 0 -13 4 -14 21 -4 32 16 9 32
-46 31 -43 -1 -48 1 -58 28 -9 23 -18 30 -37 30 -14 0 -31 -5 -38 -12z"/>
        <path d="M830 480 c0 -5 5 -10 10 -10 6 0 10 5 10 10 0 6 -4 10 -10 10 -5 0
-10 -4 -10 -10z"/>
        <path d="M1482 478 c6 -18 28 -21 28 -4 0 9 -7 16 -16 16 -9 0 -14 -5 -12 -12z"/>
        <path d="M2425 480 c-3 -5 1 -10 10 -10 9 0 13 5 10 10 -3 6 -8 10 -10 10 -2
0 -7 -4 -10 -10z"/>
        <path d="M3170 474 c0 -9 5 -14 12 -12 18 6 21 28 4 28 -9 0 -16 -7 -16 -16z"/>
        <path d="M770 472 c0 -12 19 -26 26 -19 2 2 -2 10 -11 17 -9 8 -15 8 -15 2z"/>
        <path d="M2560 460 c0 -5 5 -10 10 -10 6 0 10 5 10 10 0 6 -4 10 -10 10 -5 0
-10 -4 -10 -10z"/>
        <path d="M2775 450 c-3 -5 1 -10 9 -10 9 0 16 5 16 10 0 6 -4 10 -9 10 -6 0
-13 -4 -16 -10z"/>
        <path d="M910 435 c0 -10 10 -15 32 -15 30 0 31 1 12 15 -25 19 -44 19 -44 0z"/>
        <path d="M756 418 c10 -10 26 -18 37 -18 11 0 35 -9 53 -21 l34 -21 0 21 c0
14 -9 23 -27 27 -16 4 -34 11 -41 17 -7 6 -26 11 -43 12 -28 2 -28 1 -13 -17z"/>
        <path d="M2675 429 c-10 -15 3 -25 16 -12 7 7 7 13 1 17 -6 3 -14 1 -17 -5z"/>
        <path d="M2901 431 c-20 -13 3 -23 33 -15 14 3 23 10 20 15 -7 11 -35 11 -53
0z"/>
        <path d="M1018 418 c7 -7 12 -22 12 -35 0 -13 5 -23 11 -23 7 0 9 9 5 23 -3
12 -6 28 -6 35 0 6 -8 12 -17 12 -13 0 -14 -3 -5 -12z"/>
        <path d="M2728 405 c-4 -17 -1 -25 8 -25 15 0 36 34 27 44 -14 14 -31 5 -35
-19z"/>
        <path d="M1100 399 c0 -24 23 -21 28 4 2 10 -3 17 -12 17 -10 0 -16 -9 -16
-21z"/>
        <path d="M1750 410 c0 -5 5 -10 10 -10 6 0 10 5 10 10 0 6 -4 10 -10 10 -5 0
-10 -4 -10 -10z"/>
        <path d="M2295 400 c-3 -5 -2 -10 4 -10 5 0 13 5 16 10 3 6 2 10 -4 10 -5 0
-13 -4 -16 -10z"/>
        <path d="M2957 393 c-13 -12 -7 -33 8 -33 8 0 15 9 15 20 0 20 -11 26 -23 13z"/>
        <path d="M1272 378 c7 -19 38 -22 38 -4 0 10 -9 16 -21 16 -12 0 -19 -5 -17
-12z"/>
        <path d="M2420 380 c0 -5 4 -10 9 -10 6 0 13 5 16 10 3 6 -1 10 -9 10 -9 0
-16 -4 -16 -10z"/>
        <path d="M2796 382 c-7 -11 16 -62 27 -62 5 0 5 -5 2 -10 -10 -17 24 -45 38
-31 8 8 7 11 -6 11 -10 0 -17 8 -17 20 0 15 7 20 25 20 16 0 25 6 25 16 0 11
-6 15 -20 11 -11 -3 -30 3 -44 14 -14 11 -27 15 -30 11z"/>
        <path d="M3025 381 c-3 -5 -1 -12 4 -15 12 -8 41 3 41 15 0 12 -37 12 -45 0z"/>
        <path d="M900 370 c0 -5 5 -10 10 -10 6 0 10 5 10 10 0 6 -4 10 -10 10 -5 0
-10 -4 -10 -10z"/>
        <path d="M2575 370 c-3 -5 1 -10 9 -10 9 0 16 5 16 10 0 6 -4 10 -9 10 -6 0
-13 -4 -16 -10z"/>
        <path d="M1520 360 c0 -5 5 -10 11 -10 5 0 7 5 4 10 -3 6 -8 10 -11 10 -2 0
-4 -4 -4 -10z"/>
        <path d="M960 338 c0 -17 8 -31 20 -38 25 -13 25 -9 0 32 l-20 33 0 -27z"/>
        <path d="M1150 340 c0 -5 5 -10 10 -10 6 0 10 5 10 10 0 6 -4 10 -10 10 -5 0
-10 -4 -10 -10z"/>
        <path d="M1718 343 c7 -3 16 -2 19 1 4 3 -2 6 -13 5 -11 0 -14 -3 -6 -6z"/>
        <path d="M2205 340 c4 -6 11 -8 16 -5 14 9 11 15 -7 15 -8 0 -12 -5 -9 -10z"/>
        <path d="M892 328 c3 -7 15 -15 28 -16 21 -3 22 -2 11 12 -16 19 -44 21 -39 4z"/>
        <path d="M1027 334 c-10 -11 3 -24 24 -24 10 0 19 7 19 15 0 15 -31 21 -43 9z"/>
        <path d="M1971 331 c-10 -7 -10 -10 -1 -16 6 -4 16 -3 22 3 13 13 -4 23 -21
13z"/>
        <path d="M2018 333 c7 -3 16 -2 19 1 4 3 -2 6 -13 5 -11 0 -14 -3 -6 -6z"/>
        <path d="M2670 320 c0 -11 4 -20 9 -20 5 0 11 9 14 20 3 13 0 20 -9 20 -8 0
-14 -9 -14 -20z"/>
        <path d="M2910 331 c0 -14 91 -18 109 -4 13 10 5 12 -46 13 -35 0 -63 -4 -63
-9z"/>
        <path d="M2155 320 c3 -5 10 -10 16 -10 5 0 9 5 9 10 0 6 -7 10 -16 10 -8 0
-12 -4 -9 -10z"/>
        <path d="M2360 320 c0 -5 4 -10 9 -10 6 0 13 5 16 10 3 6 -1 10 -9 10 -9 0
-16 -4 -16 -10z"/>
        <path d="M2550 320 c-8 -5 -12 -11 -9 -14 2 -3 11 -1 19 4 8 5 12 11 9 14 -2
3 -11 1 -19 -4z"/>
        <path d="M1185 310 c3 -5 13 -10 21 -10 8 0 12 5 9 10 -3 6 -13 10 -21 10 -8
0 -12 -4 -9 -10z"/>
        <path d="M2750 295 c0 -8 -10 -20 -22 -26 -29 -16 -58 -51 -50 -63 3 -5 16 4
28 19 31 39 42 25 12 -15 -22 -31 -25 -32 -75 -27 -29 3 -68 11 -87 18 -20 7
-39 10 -43 6 -12 -12 31 -37 55 -32 16 4 22 1 22 -11 0 -27 119 -11 142 19 10
12 18 27 18 33 0 15 62 24 77 12 15 -12 33 -2 33 18 0 9 -8 14 -22 13 -13 -1
-36 -1 -52 -1 -25 2 -27 5 -22 27 4 14 2 25 -4 25 -5 0 -10 -7 -10 -15z"/>
        <path d="M1130 290 c0 -5 7 -10 15 -10 8 0 15 5 15 10 0 6 -7 10 -15 10 -8 0
-15 -4 -15 -10z"/>
        <path d="M1302 289 c2 -7 10 -15 17 -17 8 -3 12 1 9 9 -2 7 -10 15 -17 17 -8
3 -12 -1 -9 -9z"/>
        <path d="M1400 290 c0 -5 4 -10 9 -10 6 0 13 5 16 10 3 6 -1 10 -9 10 -9 0
-16 -4 -16 -10z"/>
        <path d="M2370 290 c0 -5 5 -10 10 -10 6 0 10 5 10 10 0 6 -4 10 -10 10 -5 0
-10 -4 -10 -10z"/>
        <path d="M955 280 c3 -5 11 -10 16 -10 6 0 7 5 4 10 -3 6 -11 10 -16 10 -6 0
-7 -4 -4 -10z"/>
        <path d="M1487 284 c-14 -14 -7 -25 13 -22 12 2 21 8 21 13 0 12 -24 18 -34 9z"/>
        <path d="M2450 270 c0 -15 5 -20 18 -18 9 2 17 10 17 18 0 8 -8 16 -17 18 -13
2 -18 -3 -18 -18z"/>
        <path d="M2587 284 c-14 -15 -6 -34 14 -34 14 0 19 5 17 17 -3 18 -20 27 -31
17z"/>
        <path d="M2690 280 c0 -5 4 -10 9 -10 6 0 13 5 16 10 3 6 -1 10 -9 10 -9 0
-16 -4 -16 -10z"/>
        <path d="M1590 270 c0 -5 5 -10 11 -10 5 0 7 5 4 10 -3 6 -8 10 -11 10 -2 0
-4 -4 -4 -10z"/>
        <path d="M2877 273 c-13 -12 -7 -23 12 -23 10 0 24 7 31 15 10 13 9 15 -12 15
-14 0 -28 -3 -31 -7z"/>
        <path d="M1090 260 c0 -11 48 -25 56 -17 4 3 3 10 -1 16 -8 14 -55 14 -55 1z"/>
        <path d="M1795 260 c3 -5 10 -10 16 -10 5 0 9 5 9 10 0 6 -7 10 -16 10 -8 0
-12 -4 -9 -10z"/>
        <path d="M1920 260 c-13 -8 -12 -10 3 -10 9 0 17 5 17 10 0 12 -1 12 -20 0z"/>
        <path d="M2038 263 c7 -3 16 -2 19 1 4 3 -2 6 -13 5 -11 0 -14 -3 -6 -6z"/>
        <path d="M1036 251 c-4 -6 3 -15 14 -21 23 -12 27 2 6 19 -9 8 -16 8 -20 2z"/>
        <path d="M1710 248 l-25 -11 23 -5 c28 -4 52 4 52 18 0 13 -18 12 -50 -2z"/>
        <path d="M2228 253 c7 -3 16 -2 19 1 4 3 -2 6 -13 5 -11 0 -14 -3 -6 -6z"/>
        <path d="M2655 250 c-3 -5 1 -10 9 -10 9 0 16 5 16 10 0 6 -4 10 -9 10 -6 0
-13 -4 -16 -10z"/>
        <path d="M1625 240 c-3 -5 1 -10 10 -10 9 0 13 5 10 10 -3 6 -8 10 -10 10 -2
0 -7 -4 -10 -10z"/>
        <path d="M1200 221 c0 -8 81 -23 88 -16 2 2 1 8 -3 14 -7 13 -85 15 -85 2z"/>
        <path d="M1370 220 c0 -5 18 -10 40 -10 22 0 40 5 40 10 0 6 -18 10 -40 10
-22 0 -40 -4 -40 -10z"/>
        <path d="M2280 222 c0 -16 69 -27 83 -13 8 8 5 11 -13 11 -14 0 -35 3 -47 6
-14 4 -23 2 -23 -4z"/>
        <path d="M1315 210 c3 -5 13 -10 21 -10 8 0 12 5 9 10 -3 6 -13 10 -21 10 -8
0 -12 -4 -9 -10z"/>
        <path d="M1515 210 c-3 -5 1 -10 9 -10 9 0 16 5 16 10 0 6 -4 10 -9 10 -6 0
-13 -4 -16 -10z"/>
        <path d="M1650 210 c0 -5 5 -10 11 -10 5 0 7 5 4 10 -3 6 -8 10 -11 10 -2 0
-4 -4 -4 -10z"/>
        <path d="M2170 210 c0 -5 7 -10 15 -10 8 0 15 5 15 10 0 6 -7 10 -15 10 -8 0
-15 -4 -15 -10z"/>
        <path d="M1150 200 c0 -5 7 -10 15 -10 8 0 15 5 15 10 0 6 -7 10 -15 10 -8 0
-15 -4 -15 -10z"/>
        <path d="M1870 195 c0 -8 7 -15 15 -15 8 0 15 7 15 15 0 8 -7 15 -15 15 -8 0
-15 -7 -15 -15z"/>
        <path d="M1562 188 c6 -16 36 -34 44 -25 9 9 -15 37 -33 37 -8 0 -13 -5 -11
-12z"/>
        <path d="M2100 190 c0 -5 7 -10 15 -10 8 0 15 5 15 10 0 6 -7 10 -15 10 -8 0
-15 -4 -15 -10z"/>
        <path d="M2390 190 c0 -5 7 -10 15 -10 8 0 15 5 15 10 0 6 -7 10 -15 10 -8 0
-15 -4 -15 -10z"/>
        <path d="M2430 170 c-14 -10 -21 -22 -17 -26 4 -4 12 -3 19 4 6 6 24 8 42 5
l31 -6 -19 21 c-23 26 -25 27 -56 2z"/>
        <path d="M1170 170 c20 -13 43 -13 35 0 -3 6 -16 10 -28 10 -18 0 -19 -2 -7
-10z"/>
        <path d="M1231 173 c0 -5 13 -18 30 -31 40 -33 62 -23 25 11 -27 26 -57 36
-55 20z"/>
        <path d="M1310 170 c0 -14 39 -32 52 -24 7 4 2 12 -13 20 -29 16 -39 17 -39 4z"/>
        <path d="M1413 163 c-20 -3 -33 -10 -33 -19 0 -10 12 -13 50 -11 49 2 67 18
34 31 -9 3 -16 5 -17 4 -1 0 -17 -3 -34 -5z"/>
        <path d="M1795 160 c3 -5 10 -10 16 -10 5 0 9 5 9 10 0 6 -7 10 -16 10 -8 0
-12 -4 -9 -10z"/>
        <path d="M1955 159 c-10 -15 1 -23 20 -15 9 3 13 10 10 16 -8 13 -22 13 -30
-1z"/>
        <path d="M1548 153 c7 -3 16 -2 19 1 4 3 -2 6 -13 5 -11 0 -14 -3 -6 -6z"/>
        <path d="M1739 154 c-1 -5 0 -19 0 -30 2 -16 -6 -25 -30 -33 -18 -6 -40 -11
-49 -11 -23 0 -34 -29 -14 -37 8 -3 23 2 33 11 24 21 60 20 91 -4 14 -11 33
-20 42 -20 9 0 19 -4 22 -9 3 -5 39 -8 80 -8 42 0 73 4 70 9 -3 4 -13 8 -23 8
-10 0 -23 11 -29 25 -12 26 -32 34 -32 12 0 -7 5 -18 12 -25 9 -9 3 -12 -28
-12 -28 0 -47 6 -58 19 -10 11 -28 21 -40 23 -17 2 -20 9 -18 34 2 19 -3 36
-13 44 -8 7 -15 9 -16 4z"/>
        <path d="M2030 150 c0 -5 7 -10 15 -10 8 0 15 5 15 10 0 6 -7 10 -15 10 -8 0
-15 -4 -15 -10z"/>
        <path d="M2228 153 c7 -3 16 -2 19 1 4 3 -2 6 -13 5 -11 0 -14 -3 -6 -6z"/>
        <path d="M2301 151 c-17 -11 -7 -41 14 -41 9 0 15 9 15 25 0 27 -6 30 -29 16z"/>
        <path d="M1507 133 c-16 -15 -5 -23 27 -21 44 3 68 -17 60 -48 -5 -18 -2 -24
10 -24 24 0 23 70 -1 70 -10 0 -27 7 -37 15 -21 16 -48 20 -59 8z"/>
        <path d="M1675 130 c27 -12 35 -12 35 0 0 6 -12 10 -27 9 -25 0 -26 -1 -8 -9z"/>
        <path d="M2502 123 c-14 -24 -121 -56 -138 -42 -8 6 -21 8 -31 5 -15 -6 -15
-8 0 -23 14 -15 22 -15 89 2 40 9 82 22 93 28 11 6 28 10 38 8 21 -3 22 6 3
25 -19 19 -43 18 -54 -3z"/>
        <path d="M1360 110 c0 -6 10 -14 23 -19 30 -12 160 -12 132 0 -11 4 -46 8 -77
8 -32 1 -58 6 -58 11 0 6 -4 10 -10 10 -5 0 -10 -5 -10 -10z"/>
        <path d="M1790 110 c0 -5 6 -10 14 -10 8 0 18 5 21 10 3 6 -3 10 -14 10 -12 0
-21 -4 -21 -10z"/>
        <path d="M1915 111 c-29 -4 -35 -8 -22 -13 21 -9 77 1 77 13 0 5 -3 8 -7 8 -5
-1 -26 -5 -48 -8z"/>
        <path d="M2092 105 c-8 -10 -22 -12 -42 -8 -31 6 -44 -12 -16 -23 8 -3 16 -18
20 -35 6 -33 22 -37 42 -12 18 24 17 33 -1 33 -21 0 -19 13 5 28 11 7 20 17
20 22 0 14 -13 12 -28 -5z"/>
        <path d="M2180 105 c0 -7 -7 -18 -17 -23 -9 -5 -17 -21 -19 -36 -2 -22 1 -26
22 -26 24 0 32 14 14 25 -18 11 -10 26 20 36 37 13 40 39 5 39 -15 0 -25 -6
-25 -15z"/>
        <path d="M2390 110 c0 -5 4 -10 9 -10 6 0 13 5 16 10 3 6 -1 10 -9 10 -9 0
-16 -4 -16 -10z"/>
        <path d="M2238 78 c-47 -17 -35 -38 20 -36 54 2 65 5 56 19 -4 6 -11 6 -20 -2
-11 -9 -14 -8 -14 4 0 8 6 18 13 20 23 10 -28 5 -55 -5z"/>
        <path d="M1990 60 c0 -5 4 -10 9 -10 6 0 13 5 16 10 3 6 -1 10 -9 10 -9 0 -16
-4 -16 -10z"/>
        <path d="M1528 53 c6 -2 18 -2 25 0 6 3 1 5 -13 5 -14 0 -19 -2 -12 -5z"/>
        <path d="M1705 30 c-28 -7 -28 -8 12 -9 23 0 45 4 48 9 7 11 -16 11 -60 0z"/>
    </g>
</svg>
